<svg width="241" height="51" viewBox="0 0 241 51" fill="none" xmlns="http://www.w3.org/2000/svg">
<path d="M35.1259 0.258057H14.8772C6.67114 0.258057 0 6.93229 0 15.1332V35.3829C0 43.5828 6.67114 50.2581 14.8772 50.2581H35.1248C43.3237 50.2581 49.9979 43.5828 49.9979 35.3829V15.1332C49.999 6.93229 43.3247 0.258057 35.1259 0.258057Z" fill="white"/>
<path d="M40.784 31.4032L40.7654 31.626C40.6942 32.4935 40.1506 33.3714 39.248 33.3714C38.5579 33.3714 38.0029 33.1156 37.55 32.5915C37.0064 31.9654 36.5174 31.2134 36.0223 29.8507C37.4242 25.092 41.7495 9.84859 41.7495 9.84859H33.5414C33.5414 9.84859 32.7832 13.423 32.0992 16.6745C32.0652 16.595 32.0301 16.5166 31.994 16.4413C31.3101 14.9796 30.2177 13.3549 29.0045 12.2129C26.8898 10.2251 24.4027 9.25647 21.3998 9.25647C17.255 9.25647 13.7487 10.7894 10.9779 13.8139C8.22055 16.8199 6.76398 20.6769 6.76398 24.9662C6.76398 29.7434 8.14731 33.6674 10.8748 36.6239C13.7198 39.7135 17.1219 41.1525 21.5783 41.1525C24.1747 41.1525 26.6526 40.3809 28.9499 38.8614C30.4343 37.8814 31.7887 36.5238 33.0689 34.7609C33.6064 36.5012 34.1479 37.6906 34.7957 38.5808C35.8438 40.0178 37.4139 40.841 39.1025 40.841C40.8603 40.841 42.4613 39.9404 43.2835 38.4931C44.0118 37.2088 44.3088 35.615 44.3088 32.9938V31.4032H40.784ZM27.025 34.4504C25.7809 36.2722 24.1562 37.2336 22.3262 37.2336C20.1939 37.2336 18.5816 36.2783 17.3943 34.3039C16.1492 32.2367 15.5189 29.1389 15.5189 25.0941C15.5189 21.3856 16.1873 18.4384 17.5046 16.334C18.7425 14.3586 20.294 13.4364 22.386 13.4364C24.248 13.4364 25.7015 14.21 26.9651 15.8771C28.3196 17.6658 29.4646 20.6212 30.2847 24.4205C29.2552 29.5567 28.2484 32.6617 27.025 34.4504Z" fill="black"/>
<path d="M75.0299 10.5727C74.4625 8.01752 72.8512 6.23291 69.315 6.23291C65.9882 6.23291 64.1654 8.01752 63.5981 10.5727L61.0305 22.1386H63.7755C64.4017 22.1386 65.0247 21.6393 65.1588 21.0276L65.6777 18.6746H72.9513L73.4712 21.0276C73.6053 21.6383 74.2273 22.1386 74.8535 22.1386H77.5995L75.0299 10.5727ZM66.3967 15.4149L67.3014 11.3185C67.4469 10.6563 67.9626 9.6443 69.3161 9.6443C70.6684 9.6443 71.1832 10.6552 71.3307 11.3185L72.2344 15.4149H66.3967Z" fill="white"/>
<path d="M84.3656 10.0961H90.4889V22.1386H94.2789V6.6084H82.8481C81.5989 6.6084 80.5735 7.63171 80.5735 8.883V16.7312C80.5735 17.7813 80.0897 18.4497 79.249 18.6179L78.4722 18.8036L79.1758 22.1397H79.8968C82.4902 22.1397 84.3656 20.2096 84.3656 16.9272V10.0961Z" fill="white"/>
<path d="M127.224 6.60834H125.843V4.8031H123.19C122.563 4.8031 122.052 5.31166 122.052 5.93885V6.60834H120.671C115.985 6.60834 113.057 9.80207 113.057 14.3729C113.057 18.9448 115.985 22.1386 120.671 22.1386H122.052V24.0212H124.705C125.331 24.0212 125.843 23.5095 125.843 22.8865V22.1386H127.224C131.909 22.1386 134.837 18.9448 134.837 14.3729C134.837 9.80207 131.909 6.60834 127.224 6.60834ZM120.671 18.7086C118.075 18.7086 116.848 17.0664 116.848 14.3729C116.848 11.6816 118.075 10.0393 120.671 10.0393H122.052V18.7086H120.671ZM127.224 18.7086H125.843V10.0393H127.224C129.82 10.0393 131.044 11.6816 131.044 14.3729C131.044 17.0664 129.819 18.7086 127.224 18.7086Z" fill="white"/>
<path d="M106.043 10.5468H100.602V6.61035H96.8114V21.0028C96.8114 21.6279 97.3241 22.1395 97.9493 22.1395H106.043C109.348 22.1395 111.836 19.6493 111.836 16.3432C111.836 13.038 109.748 10.5468 106.043 10.5468ZM106.043 18.6529H100.602V14.0335H106.043C106.967 14.0335 108.046 14.8608 108.046 16.3421C108.046 17.8224 106.967 18.6529 106.043 18.6529Z" fill="white"/>
<path d="M148.976 10.5727C148.406 8.01752 146.796 6.23291 143.259 6.23291C139.935 6.23291 138.111 8.01752 137.542 10.5727L134.974 22.1386H137.721C138.345 22.1386 138.969 21.6393 139.102 21.0276L139.621 18.6746H146.896L147.414 21.0276C147.548 21.6383 148.171 22.1386 148.796 22.1386H151.541L148.976 10.5727ZM140.342 15.4149L141.243 11.3185C141.393 10.6563 141.907 9.6443 143.259 9.6443C144.612 9.6443 145.125 10.6552 145.274 11.3185L146.177 15.4149H140.342Z" fill="white"/>
<path d="M170.952 35.8728C171.621 35.2147 172.051 34.3182 172.051 33.0752C172.051 30.323 169.918 28.3981 167.164 28.3981H157.896C157.27 28.3981 156.759 28.9087 156.759 29.5349V42.7915C156.759 43.4166 157.27 43.9283 157.896 43.9283L167.749 43.9304C170.653 43.9304 172.581 41.8528 172.581 39.1006C172.581 37.7152 171.923 36.63 170.952 35.8728ZM167.16 31.6217C167.665 31.6217 168.354 32.187 168.354 33.1526C168.354 34.1253 167.665 34.6215 167.16 34.6824H160.473V31.6207L167.16 31.6217ZM167.464 40.7077H160.472V37.644H167.464C167.969 37.7059 168.657 38.201 168.657 39.1748C168.657 40.1394 167.969 40.7077 167.464 40.7077Z" fill="white"/>
<path d="M145.91 28.0413C141.223 28.0413 137.947 31.3784 137.947 36.1638C137.947 40.9472 141.222 44.2874 145.91 44.2874H147.208C151.895 44.2874 155.17 40.9472 155.17 36.1638C155.17 31.3784 151.896 28.0413 147.208 28.0413H145.91ZM142.043 36.1638C142.043 33.3786 143.526 31.2494 146.139 31.2494H146.981C149.592 31.2494 151.074 33.3786 151.074 36.1638C151.074 38.949 149.59 41.0803 146.981 41.0803H146.139C143.525 41.0792 142.043 38.949 142.043 36.1638Z" fill="white"/>
<path d="M75.1599 28.3981L75.6592 30.7469C75.7923 31.3731 76.4133 31.8837 77.0384 31.8837H80.5725V43.9273H84.3646V31.8848H87.7883C88.4124 31.8848 89.0324 31.3741 89.1644 30.748L89.6637 28.3991H75.1599" fill="white"/>
<path d="M202.864 28.3981V34.5648H195.488V28.3981H191.696V43.9283H195.488V37.8957H202.864V43.9283H206.656V28.3981H202.864Z" fill="white"/>
<path d="M119.283 32.3645C118.715 29.8083 117.106 28.0258 113.567 28.0258C110.246 28.0258 108.421 29.8093 107.854 32.3645L105.285 43.9284H108.031C108.657 43.9284 109.279 43.4312 109.414 42.8194L109.932 40.4654H117.203L117.722 42.8194C117.855 43.4312 118.479 43.9284 119.106 43.9284H121.851L119.283 32.3645ZM110.652 37.2046L111.555 33.1083C111.701 32.447 112.216 31.4341 113.569 31.4341C114.923 31.4341 115.437 32.447 115.585 33.1103L116.488 37.2036H110.652V37.2046Z" fill="white"/>
<path d="M187.453 32.3645C186.884 29.8083 185.275 28.0258 181.736 28.0258C178.411 28.0258 176.59 29.8093 176.021 32.3645L173.454 43.9284H176.201C176.825 43.9284 177.448 43.4312 177.581 42.8194L178.102 40.4654H185.374L185.895 42.8194C186.031 43.4312 186.652 43.9284 187.276 43.9284H190.025L187.453 32.3645ZM178.818 37.2046L179.723 33.1083C179.872 32.447 180.385 31.4341 181.736 31.4341C183.087 31.4341 183.604 32.447 183.752 33.1103L184.654 37.2036H178.818V37.2046Z" fill="white"/>
<path d="M76.34 43.8861V43.9304H68.9334C64.4492 43.9304 61.3173 40.7377 61.3173 36.1638C61.3173 31.5919 64.4502 28.3992 68.9334 28.3992H74.5523L74.0025 30.779C73.8622 31.3897 73.235 31.8859 72.6088 31.8859H68.9334C66.537 31.8859 65.1083 33.6746 65.1083 36.1648C65.1083 38.654 66.536 40.4437 68.9334 40.4437H74.4079C75.032 40.4437 75.6602 40.9409 75.8005 41.5516L76.34 43.8861Z" fill="white"/>
<path d="M99.8267 28.3981L91.7341 28.3991C91.1069 28.3991 90.5963 28.9108 90.5963 29.5359V43.9293H94.3883V39.9898H99.8267C103.536 39.9898 105.623 37.4985 105.623 34.1955C105.623 30.8914 103.132 28.3981 99.8267 28.3981ZM99.8267 36.5041H94.3883V31.8889H99.8267C100.752 31.8889 101.832 32.7152 101.832 34.1965C101.832 35.6758 100.752 36.5041 99.8267 36.5041Z" fill="white"/>
<path d="M238.794 40.65H230.627V37.6678H239.505V34.6721H230.627V31.6754H238.794C239.467 31.6754 239.998 31.3804 240.184 30.5675L240.689 28.3971H227.974C227.35 28.3971 226.836 28.9077 226.836 29.5339V42.7905C226.836 43.4157 227.349 43.9294 227.974 43.9294H240.689L240.184 41.759C239.998 40.9471 239.468 40.65 238.794 40.65Z" fill="white"/>
<path d="M209.255 43.9283V28.3981H213.047V38.6446L219.615 29.3141C219.986 28.8107 220.797 28.3981 221.428 28.3981H224.239V43.9283H220.446V33.6828L213.876 43.0123C213.507 43.5157 212.693 43.9283 212.066 43.9283H209.255Z" fill="white"/>
<path d="M133.288 36.0812L138.58 28.3992H135.097C134.345 28.3992 133.816 28.6282 133.351 29.3575L130.531 33.785H130.027L127.205 29.3575C126.742 28.6271 126.214 28.3992 125.458 28.3992H121.863L127.268 36.2453L121.976 43.9284H125.458C126.213 43.9284 126.742 43.7014 127.205 42.97L130.027 38.5415H130.531L133.351 42.97C133.816 43.7014 134.345 43.9284 135.097 43.9284H138.692L133.288 36.0812Z" fill="white"/>
</svg>
