<svg width="293" height="51" viewBox="0 0 293 51" fill="none" xmlns="http://www.w3.org/2000/svg">
<path d="M123.692 20.1665C117.564 23.5712 114.402 30.0402 115.57 36.8496C116.64 43.1241 121.552 48.3284 127.875 49.7876C128.702 49.9822 129.529 50.1281 130.356 50.274C131.28 50.274 132.204 50.274 133.177 50.274C133.274 50.2253 133.371 50.1767 133.517 50.1767C135.609 49.9822 137.603 49.3498 139.5 48.3771C147.817 44.1941 150.736 33.4935 145.726 25.6627C141.397 18.9505 131.961 15.5944 123.692 20.1665ZM131.669 44.34C126.027 44.34 121.552 39.8166 121.552 34.1745C121.552 28.4837 126.027 24.0089 131.718 24.0089C137.409 24.0089 141.883 28.5324 141.883 34.2718C141.932 39.8166 137.36 44.34 131.669 44.34Z" fill="white"/>
<path d="M8.17479 18.075C5.40237 17.9291 2.72722 18.4155 0.197998 19.5828C0.197998 21.9661 0.197998 24.3494 0.197998 26.6841C0.781666 26.295 1.36533 25.8572 1.99764 25.4681C5.45101 23.328 8.95301 23.328 12.4064 25.3708C14.4006 26.6354 15.6652 28.4837 16.2489 30.9157C12.0659 30.9157 7.98023 30.9157 3.79728 30.9157C3.79728 31.1589 3.74864 31.3048 3.74864 31.4507C3.74864 33.0071 3.74864 34.5636 3.74864 36.12C3.74864 36.6064 3.89456 36.7037 4.33231 36.7037C8.02887 36.7037 11.7741 36.7037 15.4706 36.7037C15.7138 36.7037 15.9084 36.7037 16.2489 36.7037C16.2002 36.9955 16.1516 37.2387 16.1029 37.4333C15.0329 40.9839 12.7955 43.3672 9.09893 44.1455C6.86154 44.6319 4.77006 44.1455 2.77586 43.0754C1.90036 42.589 1.0735 42.0054 0.197998 41.519C0.197998 43.9023 0.197998 46.2856 0.197998 48.6203C0.878944 48.8635 1.60853 49.2039 2.28947 49.3985C3.40817 49.6903 4.52687 49.8849 5.64556 50.1281C5.79148 50.1767 5.88876 50.2253 6.03467 50.2253C6.91018 50.2253 7.83432 50.2253 8.70982 50.2253C8.85573 50.1767 9.00165 50.1281 9.14757 50.1281C13.7683 49.5444 17.5135 47.4043 20.0913 43.5132C22.8638 39.3302 23.3988 34.6609 22.3287 29.797C20.8696 23.1821 14.9842 18.3668 8.17479 18.075Z" fill="white"/>
<path d="M7.34793 8.93091C7.25065 8.63908 7.15337 8.34725 7.05609 8.05541C4.86734 8.88227 3.35953 8.73636 2.33811 7.52038C1.36533 6.30441 1.21942 4.21293 2.09492 2.85104C3.01906 1.34323 4.28367 1.0514 7.15337 1.78098C7.29929 0.710927 7.25065 0.613649 6.22923 0.419094C5.64556 0.321816 5.11053 0.273177 4.52687 0.321816C2.43539 0.370455 0.830305 1.73235 0.343915 3.77518C0.295276 3.96974 0.246637 4.11566 0.197998 4.31021C0.197998 4.84524 0.197998 5.38027 0.197998 5.96394C0.246637 6.06121 0.295276 6.10985 0.295276 6.20713C1.02486 9.32002 4.57551 10.7306 7.34793 8.93091Z" fill="white"/>
<path d="M263.286 30.8672C259.152 30.8672 255.066 30.8672 250.883 30.8672C250.883 26.8788 250.883 22.8904 250.883 18.902C248.792 18.902 246.749 18.902 244.706 18.902C244.706 29.1162 244.706 39.2817 244.706 49.3986C246.797 49.3986 248.792 49.3986 250.883 49.3986C250.883 45.2157 250.883 41.0327 250.883 36.8984C255.017 36.8984 259.103 36.8984 263.286 36.8984C263.286 41.0813 263.286 45.2643 263.286 49.4472C265.378 49.4472 267.42 49.4472 269.415 49.4472C269.415 39.2817 269.415 29.1162 269.415 18.9506C267.372 18.9506 265.377 18.9506 263.237 18.9506C263.286 22.939 263.286 26.9274 263.286 30.8672Z" fill="white"/>
<path d="M43.8759 30.8672C39.7416 30.8672 35.6559 30.8672 31.4729 30.8672C31.4729 26.8788 31.4729 22.8904 31.4729 18.902C29.3815 18.902 27.3386 18.902 25.2958 18.902C25.2958 29.1162 25.2958 39.2331 25.2958 49.3986C27.3386 49.3986 29.3815 49.3986 31.4729 49.3986C31.4729 45.2157 31.4729 41.0327 31.4729 36.8498C35.6559 36.8498 39.7416 36.8498 43.8759 36.8498C43.8759 41.0327 43.8759 45.2157 43.8759 49.3986C45.9673 49.3986 48.0102 49.3986 50.053 49.3986C50.053 39.1844 50.053 29.0675 50.053 18.902C47.9615 18.902 45.9673 18.902 43.8272 18.902C43.8759 22.939 43.8759 26.9274 43.8759 30.8672Z" fill="white"/>
<path d="M60.7049 37.3847C60.7049 36.8011 60.8022 36.6065 61.4345 36.6065C64.3528 36.6551 67.2712 36.6065 70.1895 36.6065C70.4327 36.6065 70.6273 36.6065 70.8705 36.5579C70.8705 34.6123 70.8705 32.7154 70.8705 30.7212C67.4657 30.7212 64.1583 30.7212 60.7536 30.7212C60.7536 28.6783 60.7536 26.7328 60.7536 24.6899C64.9365 24.6899 69.1195 24.6899 73.3024 24.6899C73.3024 22.6958 73.3024 20.7988 73.3024 18.8533C67.028 18.8533 60.7536 18.8533 54.5278 18.8533C54.5278 29.0675 54.5278 39.1844 54.5278 49.3499C60.8022 49.3499 67.0766 49.3499 73.3024 49.3499C73.3024 47.4043 73.3024 45.4588 73.3024 43.4646C69.0708 43.4646 64.9365 43.4646 60.7049 43.4646C60.7536 41.4218 60.7536 39.3789 60.7049 37.3847Z" fill="white"/>
<path d="M210.805 49.4471C213.042 49.4471 215.134 49.4471 217.274 49.4471C217.42 49.4471 217.663 49.2039 217.711 49.058C219.025 46.3829 220.338 43.7077 221.651 40.984C221.846 40.5462 222.089 40.4003 222.575 40.4003C225.64 40.4003 228.704 40.4003 231.817 40.4003C232.254 40.4003 232.498 40.4976 232.644 40.9353C233.908 43.6105 235.221 46.2856 236.486 48.9607C236.681 49.3499 236.875 49.4958 237.313 49.4958C238.188 49.4471 239.064 49.4958 239.939 49.4958C241.155 49.4958 242.323 49.4958 243.636 49.4958C238.188 38.5034 232.741 27.5596 227.293 16.5186C221.748 27.511 216.301 38.4547 210.805 49.4471ZM224.57 34.7095C225.445 32.9099 226.272 31.2075 227.196 29.3592C228.072 31.2075 228.898 32.9099 229.774 34.7095C227.974 34.7095 226.321 34.7095 224.57 34.7095Z" fill="white"/>
<path d="M162.069 49.4472C164.209 49.4472 166.203 49.4472 168.246 49.4472C168.635 49.4472 168.878 49.3013 169.024 48.9609C170.337 46.2371 171.65 43.5619 172.964 40.8381C173.11 40.4977 173.304 40.3518 173.645 40.3518C176.806 40.3518 179.968 40.3518 183.178 40.3518C183.518 40.3518 183.713 40.449 183.859 40.7409C184.978 43.0755 186.194 45.3616 187.166 47.7449C187.701 49.0095 188.334 49.5932 189.793 49.4472C191.252 49.3013 192.711 49.3986 194.17 49.3986C194.365 49.3986 194.559 49.3986 194.851 49.3986C189.404 38.3576 183.956 27.4624 178.509 16.4214C173.012 27.5111 167.565 38.4062 162.069 49.4472ZM175.833 34.7096C176.709 32.91 177.536 31.2076 178.46 29.3107C179.335 31.159 180.211 32.91 181.038 34.7096C179.238 34.7096 177.584 34.7096 175.833 34.7096Z" fill="white"/>
<path d="M213.529 23.6685C211.34 20.361 208.032 18.9505 204.19 18.8046C201.661 18.7073 199.131 18.7559 196.602 18.7559C196.408 18.7559 196.213 18.7559 195.97 18.7559C195.97 29.0188 195.97 39.2329 195.97 49.3985C198.061 49.3985 200.056 49.3985 202.147 49.3985C202.147 46.1883 202.147 42.9781 202.147 39.768C202.536 39.768 202.877 39.768 203.217 39.768C205.065 39.7193 206.865 39.4275 208.616 38.6979C215.96 35.6337 216.398 27.9487 213.529 23.6685ZM206.281 33.1531C205.114 33.6881 203.849 33.834 202.585 33.834C202.196 33.834 202.098 33.6881 202.098 33.299C202.098 31.9371 202.098 30.5752 202.098 29.2133C202.098 27.8514 202.098 26.5382 202.098 25.1763C202.098 24.6899 202.244 24.544 202.731 24.544C203.898 24.544 205.065 24.5926 206.135 25.079C207.838 25.8572 208.859 27.1218 208.859 29.0674C208.956 31.013 208.032 32.3748 206.281 33.1531Z" fill="white"/>
<path d="M86.1916 18.9507C83.4192 18.7561 80.5981 18.902 77.7771 18.902C77.6311 18.902 77.5339 18.9507 77.3879 18.9507C77.3879 29.1162 77.3879 39.2817 77.3879 49.4473C79.4308 49.4473 81.4736 49.4473 83.5651 49.4473C83.5651 46.2858 83.5651 43.1242 83.5651 39.8654C83.9542 39.8654 84.2947 39.8654 84.6351 39.8654C86.4834 39.8168 88.2831 39.5249 90.0341 38.844C96.6976 36.0716 97.8649 29.2621 95.433 24.5928C93.4874 20.8476 90.1314 19.1939 86.1916 18.9507ZM88.2344 33.0073C86.9212 33.7855 85.462 33.9801 83.9542 33.9801C83.6137 33.9801 83.5651 33.8342 83.5651 33.5423C83.5651 30.7699 83.5651 27.9975 83.5651 25.2251C83.5651 24.8846 83.6624 24.7387 84.0028 24.7873C84.246 24.7873 84.4892 24.7873 84.7811 24.7873C86.3861 24.7873 87.894 25.1278 89.0613 26.2465C91.1041 28.1921 90.6664 31.5968 88.2344 33.0073Z" fill="white"/>
<path d="M273.209 24.7387C275.397 24.7387 277.44 24.7387 279.58 24.7387C279.58 33.0073 279.58 41.1786 279.58 49.3986C281.672 49.3986 283.715 49.3986 285.806 49.3986C285.806 41.1786 285.806 32.9586 285.806 24.69C287.995 24.69 290.086 24.69 292.178 24.69C292.178 22.7445 292.178 20.7989 292.178 18.902C285.806 18.902 279.532 18.902 273.209 18.902C273.209 20.8475 273.209 22.7445 273.209 24.7387Z" fill="white"/>
<path d="M167.808 18.902C162.117 18.902 156.426 18.902 150.736 18.902C150.736 29.1162 150.736 39.2817 150.736 49.3986C152.827 49.3986 154.821 49.3986 156.913 49.3986C156.913 41.1786 156.913 33.0073 156.913 24.7387C160.561 24.7387 164.16 24.7387 167.759 24.7387C167.808 22.7445 167.808 20.8475 167.808 18.902Z" fill="white"/>
<path d="M115.57 18.902C110.317 18.902 105.064 18.902 99.8107 18.902C99.8107 29.1162 99.8107 39.2331 99.8107 49.3986C101.854 49.3986 103.848 49.3986 105.939 49.3986C105.939 49.0581 105.939 48.8149 105.939 48.5231C105.939 40.8382 105.939 33.1046 105.939 25.4196C105.939 24.8359 106.134 24.69 106.717 24.69C109.441 24.7387 112.165 24.69 114.889 24.69C115.132 24.69 115.326 24.69 115.57 24.69C115.57 22.7445 115.57 20.8475 115.57 18.902Z" fill="white"/>
<path d="M231.914 2.65656C232.887 3.92117 233.762 5.18579 234.638 6.49904C235.027 7.08271 235.416 7.08271 235.757 6.49904C236.486 5.3317 237.216 4.16437 237.945 2.99703C238.043 2.89975 238.14 2.80248 238.334 2.55928C238.334 5.03987 238.334 7.27726 238.334 9.56329C238.724 9.56329 239.064 9.56329 239.453 9.56329C239.453 6.49904 239.453 3.48342 239.453 0.467806C238.432 0.370528 238.432 0.370528 237.945 1.14875C237.07 2.55928 236.146 3.96981 235.222 5.42898C234.2 3.92117 233.227 2.51064 232.303 1.05147C231.817 0.321889 231.671 0.27325 230.795 0.516445C230.795 3.53206 230.795 6.54768 230.795 9.56329C231.185 9.56329 231.525 9.56329 231.963 9.56329C231.914 7.17998 231.914 4.89395 231.914 2.65656Z" fill="white"/>
<path d="M124.227 8.93081C125.784 6.79069 127.34 4.69922 128.945 2.60774C128.994 2.51046 129.091 2.46182 129.237 2.31591C129.237 4.74786 129.237 7.13117 129.237 9.46584C129.675 9.46584 130.015 9.46584 130.404 9.46584C130.404 6.40158 130.404 3.38597 130.404 0.273071C129.918 0.467627 129.383 0.0785154 128.994 0.613544C127.437 2.75366 125.832 4.84513 124.227 6.98525C124.13 7.08253 124.033 7.17981 123.838 7.37436C123.838 4.94241 123.838 2.65638 123.838 0.370349C123.449 0.370349 123.06 0.370349 122.671 0.370349C122.671 3.4346 122.671 6.45022 122.671 9.46584C123.4 9.66039 123.838 9.46584 124.227 8.93081Z" fill="white"/>
<path d="M276.662 8.93096C278.218 6.79085 279.775 4.69937 281.38 2.60789C281.428 2.51062 281.526 2.46198 281.672 2.26742C281.672 4.79665 281.672 7.13132 281.672 9.46599C282.109 9.46599 282.45 9.46599 282.839 9.46599C282.839 6.40173 282.839 3.38612 282.839 0.370502C282.061 0.127307 281.574 0.419141 281.088 1.05145C279.629 3.09428 278.072 5.08848 276.565 7.13132C276.516 7.17996 276.419 7.2286 276.321 7.37451C276.321 4.9912 276.321 2.65653 276.321 0.321863C275.932 0.321863 275.543 0.321863 275.154 0.321863C275.154 3.38612 275.154 6.40173 275.154 9.41735C275.786 9.61191 276.224 9.46599 276.662 8.93096Z" fill="white"/>
<path d="M118.488 12.0438C118.926 12.0438 119.266 12.0438 119.607 12.0438C119.607 10.8278 119.607 9.70911 119.607 8.54177C119.218 8.54177 118.926 8.49314 118.537 8.49314C118.537 5.76935 118.537 3.09421 118.537 0.419067C118.099 0.419067 117.758 0.419067 117.321 0.419067C117.321 3.14285 117.321 5.81799 117.321 8.54177C115.861 8.54177 114.451 8.54177 112.943 8.54177C112.943 5.81799 112.943 3.14285 112.943 0.467706C112.505 0.467706 112.116 0.467706 111.776 0.467706C111.776 3.53196 111.776 6.54758 111.776 9.66047C114.013 9.66047 116.251 9.66047 118.488 9.66047C118.488 10.4387 118.488 11.2169 118.488 12.0438Z" fill="white"/>
<path d="M219.852 8.63902C221.311 9.80636 222.965 9.95227 224.618 9.27133C226.223 8.59038 227.05 7.27713 227.245 5.57477C227.634 2.41323 225.348 -0.505104 221.408 0.419036C219.463 0.905426 218.247 2.70507 218.247 5.28293C218.295 6.40163 218.684 7.71488 219.852 8.63902ZM219.803 3.43465C220.289 2.02412 221.603 1.14862 223.062 1.29454C224.716 1.48909 225.786 2.55915 225.98 4.26151C226.029 4.50471 226.029 4.7479 226.029 4.84518C226.029 6.88802 225.105 8.20127 223.5 8.54174C221.895 8.88222 220.435 8.10399 219.852 6.59619C219.463 5.52613 219.463 4.50471 219.803 3.43465Z" fill="white"/>
<path d="M138.235 9.66039C140.959 9.66039 142.808 7.81211 142.856 5.03969C142.856 2.21863 141.105 0.32171 138.381 0.273071C135.755 0.273071 133.907 2.12135 133.809 4.69922C133.761 7.81211 135.852 9.66039 138.235 9.66039ZM135.463 3.28869C135.901 2.02407 137.068 1.29449 138.381 1.29449C139.743 1.29449 140.862 2.07271 141.3 3.38597C141.494 3.87235 141.543 4.45602 141.64 4.99105C141.543 6.79069 140.716 8.15258 139.257 8.5417C137.117 9.12536 135.22 7.71483 135.123 5.4288C135.123 4.69922 135.22 3.92099 135.463 3.28869Z" fill="white"/>
<path d="M55.8895 4.99118C55.8895 2.21876 54.0899 0.321837 51.4147 0.321837C48.6909 0.273198 46.8913 2.17012 46.8913 4.94254C46.8913 7.71496 48.6909 9.61188 51.3661 9.61188C54.0412 9.66052 55.8895 7.7636 55.8895 4.99118ZM52.2902 8.49318C50.1987 9.07685 48.3505 7.7636 48.1559 5.52621C48.1073 4.8939 48.1559 4.26159 48.3018 3.62929C48.6909 2.17012 49.9555 1.24598 51.3661 1.29462C52.8739 1.34326 53.9926 2.2674 54.3817 3.72656C54.479 4.11568 54.5276 4.55343 54.5763 4.99118C54.6249 6.79082 53.7494 8.10407 52.2902 8.49318Z" fill="white"/>
<path d="M62.2615 9.51454C62.5047 9.51454 62.7479 9.4659 62.9424 9.41726C64.4502 9.07679 65.2771 7.81218 64.9366 6.35301C64.7421 5.52615 64.1584 4.99112 63.3315 4.69928C63.4288 4.60201 63.4775 4.55337 63.5261 4.50473C64.353 3.87242 64.5475 3.04556 64.353 2.12142C64.1584 1.24592 63.5747 0.66225 62.7479 0.564972C61.6292 0.370416 60.5105 0.419055 59.3431 0.321777C59.3431 3.48331 59.3431 6.49893 59.3431 9.56318C60.3646 9.51454 61.2887 9.51454 62.2615 9.51454ZM60.5591 1.44047C61.4346 1.14864 62.5047 1.3432 62.9424 1.87822C63.3315 2.31597 63.3802 3.04556 63.0397 3.58059C62.456 4.50473 61.5319 4.31017 60.5591 4.31017C60.5591 3.28875 60.5591 2.36461 60.5591 1.44047ZM60.5591 5.67206C60.5591 5.52615 60.7537 5.33159 60.8996 5.33159C61.4833 5.33159 62.0669 5.33159 62.6506 5.42887C63.4288 5.57479 63.8666 6.20709 63.8666 6.93668C63.8666 7.66626 63.4775 8.24993 62.6992 8.39585C62.0669 8.54176 61.386 8.49312 60.6078 8.54176C60.5591 7.52034 60.5105 6.5962 60.5591 5.67206Z" fill="white"/>
<path d="M175.395 5.38024C177.049 5.38024 178.606 5.38024 180.211 5.38024C180.211 6.79077 180.211 8.10402 180.211 9.51455C180.648 9.51455 180.989 9.51455 181.378 9.51455C181.378 6.4503 181.378 3.43468 181.378 0.419067C180.94 0.419067 180.6 0.419067 180.211 0.419067C180.211 1.73232 180.211 2.99693 180.211 4.31018C178.557 4.31018 177.001 4.31018 175.347 4.31018C175.347 2.99693 175.347 1.73232 175.347 0.419067C174.909 0.419067 174.569 0.419067 174.179 0.419067C174.179 3.48332 174.179 6.49894 174.179 9.51455C174.569 9.51455 174.958 9.51455 175.395 9.51455C175.395 8.10402 175.395 6.74213 175.395 5.38024Z" fill="white"/>
<path d="M78.1177 9.51454C78.75 9.66046 79.0419 9.31999 79.2364 8.78496C79.5282 8.05537 79.9174 7.37443 80.2578 6.69348C80.7929 5.62342 81.4252 5.38023 82.6411 5.81798C82.6411 7.03395 82.6411 8.24993 82.6411 9.4659C83.0302 9.4659 83.4194 9.4659 83.8085 9.4659C83.8085 6.40165 83.8085 3.38603 83.8085 0.321777C83.0302 0.321777 82.252 0.321777 81.5224 0.321777C81.2792 0.321777 81.0361 0.321777 80.7442 0.370416C79.3337 0.564972 78.6041 1.24592 78.3609 2.46189C78.1177 3.67787 78.5555 4.55337 79.7228 5.23431C78.9446 6.69348 78.215 8.05537 77.4368 9.51454C77.7772 9.51454 77.9718 9.51454 78.1177 9.51454ZM79.8687 2.12142C80.5497 1.1 81.6197 1.39183 82.5925 1.3432C82.5925 2.46189 82.5925 3.53195 82.5925 4.69928C81.6197 4.69928 80.5983 4.89384 79.8687 4.01834C79.4796 3.53195 79.4796 2.65645 79.8687 2.12142Z" fill="white"/>
<path d="M197.04 6.88819C197.624 5.67222 198.061 5.47766 199.521 5.81814C199.521 7.03411 199.521 8.25008 199.521 9.5147C199.958 9.5147 200.299 9.5147 200.688 9.5147C200.688 6.49908 200.688 3.48347 200.688 0.419211C199.667 0.419211 198.645 0.321933 197.624 0.419211C196.164 0.565128 195.386 1.34335 195.192 2.6566C195.046 3.87258 195.484 4.79672 196.554 5.28311C195.775 6.69364 195.046 8.10417 194.268 9.56334C194.608 9.56334 194.803 9.5147 195.046 9.56334C195.581 9.66061 195.824 9.41742 196.067 8.93103C196.359 8.20145 196.7 7.5205 197.04 6.88819ZM196.748 2.07294C197.429 1.10016 198.499 1.34335 199.472 1.34335C199.472 2.46205 199.472 3.5321 199.472 4.69944C198.499 4.69944 197.478 4.894 196.748 4.06713C196.359 3.5321 196.359 2.6566 196.748 2.07294Z" fill="white"/>
<path d="M147.525 8.83361C147.525 7.81219 147.525 6.79077 147.525 5.81799C147.525 5.47752 147.623 5.3316 148.012 5.3316C149.325 5.3316 150.638 5.3316 152 5.3316C152.341 5.3316 152.487 5.47752 152.487 5.81799C152.487 6.83941 152.487 7.86083 152.487 8.93089C152.487 9.12544 152.535 9.32 152.535 9.51455C152.973 9.51455 153.313 9.51455 153.605 9.51455C153.605 6.4503 153.605 3.43468 153.605 0.419067C153.216 0.419067 152.876 0.419067 152.487 0.419067C152.487 1.73232 152.487 2.99693 152.487 4.31018C150.833 4.31018 149.276 4.31018 147.574 4.31018C147.574 2.99693 147.574 1.68368 147.574 0.419067C147.136 0.419067 146.796 0.419067 146.407 0.419067C146.407 3.48332 146.407 6.49894 146.407 9.51455C146.796 9.51455 147.185 9.51455 147.574 9.51455C147.525 9.27136 147.525 9.02817 147.525 8.83361Z" fill="white"/>
<path d="M289.357 0.370383C288.238 0.467661 287.265 0.905412 286.925 2.07275C286.536 3.33736 286.779 4.55333 288.189 5.23428C287.411 6.64481 286.682 8.05534 285.903 9.51451C286.244 9.51451 286.438 9.51451 286.633 9.51451C287.119 9.61179 287.46 9.41723 287.654 8.93084C287.946 8.20126 288.384 7.47167 288.724 6.74209C289.065 6.0125 289.551 5.67203 290.427 5.72067C291.01 5.76931 291.205 5.91523 291.156 6.49889C291.108 7.52031 291.156 8.49309 291.156 9.51451C291.594 9.51451 291.935 9.51451 292.275 9.51451C292.275 6.45025 292.275 3.43464 292.275 0.370383C291.254 0.370383 290.281 0.273105 289.357 0.370383ZM291.059 4.45606C291.059 4.55333 290.816 4.69925 290.719 4.69925C290.232 4.69925 289.697 4.69925 289.211 4.60197C288.384 4.40742 287.995 3.77511 288.043 2.85097C288.092 2.07275 288.676 1.44044 289.503 1.34316C289.989 1.29452 290.524 1.34316 291.059 1.34316C291.059 2.41322 291.059 3.43464 291.059 4.45606Z" fill="white"/>
<path d="M248.549 1.34338C248.986 1.34338 249.084 1.4893 249.084 1.92705C249.084 4.26172 249.084 6.54775 249.084 8.88243C249.084 9.07698 249.084 9.27154 249.084 9.51473C249.521 9.51473 249.862 9.51473 250.202 9.51473C250.202 6.45048 250.202 3.43486 250.202 0.370605C247.916 0.370605 245.679 0.370605 243.393 0.370605C243.393 3.43486 243.393 6.45048 243.393 9.51473C243.782 9.51473 244.122 9.51473 244.609 9.51473C244.609 6.79095 244.609 4.11581 244.609 1.39202C245.971 1.34338 247.235 1.39202 248.549 1.34338Z" fill="white"/>
<path d="M270.047 4.26172C268.393 4.26172 266.837 4.26172 265.134 4.26172C265.134 2.94847 265.134 1.63522 265.134 0.370605C264.697 0.370605 264.356 0.370605 264.016 0.370605C264.016 3.43486 264.016 6.45048 264.016 9.46609C264.405 9.46609 264.794 9.46609 265.183 9.46609C265.183 8.1042 265.183 6.74231 265.183 5.33178C266.691 5.33178 268.101 5.33178 269.512 5.33178C269.95 5.33178 270.095 5.4777 270.047 5.91545C269.998 6.49912 270.047 7.13142 270.047 7.71509C270.047 8.29876 270.047 8.88242 270.047 9.51473C270.485 9.51473 270.825 9.51473 271.166 9.51473C271.166 6.45048 271.166 3.43486 271.166 0.419244C270.776 0.419244 270.436 0.419244 269.998 0.419244C270.047 1.7325 270.047 2.99711 270.047 4.26172Z" fill="white"/>
<path d="M210.27 5.47753C211.923 5.28297 212.069 5.38025 212.799 6.74214C213.139 7.32581 213.48 7.90947 213.723 8.54178C214.015 9.41728 214.598 9.66048 215.425 9.51456C215.474 9.51456 215.474 9.51456 215.62 9.46592C214.647 7.95811 214.112 6.20711 212.799 4.79658C213.528 4.21291 213.772 3.28877 214.063 2.41327C214.307 1.78096 214.55 1.14866 215.474 1.39185C215.474 1.00274 215.474 0.662267 215.474 0.370433C214.258 0.0785996 213.674 0.370433 213.237 1.48913C213.042 2.02416 212.847 2.60783 212.653 3.14285C212.215 4.26155 211.583 4.55339 210.27 4.31019C210.27 2.99694 210.27 1.68369 210.27 0.370433C209.832 0.370433 209.443 0.370433 209.102 0.370433C209.102 3.43469 209.102 6.4503 209.102 9.46592C209.491 9.46592 209.881 9.46592 210.318 9.46592C210.27 8.10403 210.27 6.79078 210.27 5.47753Z" fill="white"/>
<path d="M103.264 5.47756C104.869 5.23437 105.161 5.38028 105.793 6.69354C106.231 7.5204 106.62 8.34726 107.058 9.17412C107.155 9.32004 107.301 9.46596 107.447 9.5146C107.787 9.56324 108.176 9.5146 108.566 9.5146C108.031 8.10407 106.474 5.47756 105.793 4.79662C106.62 4.11567 106.815 3.14289 107.155 2.21875C107.447 1.44053 107.641 1.34325 108.468 1.34325C108.468 1.00278 108.468 0.662304 108.468 0.321831C107.204 0.078636 106.669 0.37047 106.231 1.48917C105.988 2.02419 105.842 2.60786 105.599 3.19153C105.112 4.26159 104.48 4.55342 103.264 4.26159C103.264 2.94833 103.264 1.63508 103.264 0.321831C102.826 0.321831 102.486 0.321831 102.145 0.321831C102.145 3.38609 102.145 6.4017 102.145 9.41732C102.534 9.41732 102.875 9.41732 103.264 9.41732C103.264 8.1527 103.264 6.83945 103.264 5.47756Z" fill="white"/>
<path d="M28.506 7.61762C28.6519 7.13123 28.8951 7.03395 29.3329 7.03395C29.8192 7.08259 30.3056 7.03395 30.792 7.03395C32.2998 7.03395 32.2998 7.03396 32.7862 8.39585C33.224 9.51454 33.224 9.51454 34.4399 9.41726C34.3913 9.27135 34.3427 9.12543 34.294 8.97951C33.2726 6.30437 32.2026 3.53195 31.1811 0.808167C31.0352 0.467694 30.9379 0.321777 30.5488 0.321777C30.1597 0.321777 30.0138 0.467694 29.9165 0.808167C28.8951 3.53195 27.825 6.30437 26.8036 9.02815C26.755 9.17407 26.7064 9.31999 26.6577 9.51454C27.0955 9.51454 27.4846 9.51454 27.9223 9.51454C28.0682 8.88224 28.3601 8.24993 28.506 7.61762ZM30.4516 2.36461C30.5002 2.36461 30.5488 2.36461 30.5975 2.36461C31.0352 3.58059 31.473 4.79656 31.9107 6.06117C30.9866 6.06117 30.1111 6.06117 29.1383 6.06117C29.5761 4.79656 30.0138 3.58059 30.4516 2.36461Z" fill="white"/>
<path d="M71.9892 0.710889C71.8433 0.370416 71.6487 0.321777 71.3569 0.321777C70.9678 0.321777 70.8705 0.467694 70.7246 0.759528C70.0436 2.65645 69.314 4.55337 68.5845 6.45029C68.1953 7.4717 67.8062 8.44448 67.4171 9.51454C67.7089 9.51454 67.9035 9.4659 68.0981 9.51454C68.5845 9.61182 68.8276 9.36862 68.9736 8.93087C69.1195 8.44448 69.314 7.90946 69.5086 7.47171C69.6059 7.32579 69.8004 7.13123 69.995 7.13123C70.53 7.08259 71.065 7.13123 71.6487 7.13123C73.2051 7.13123 73.2052 7.13123 73.7402 8.5904C74.1293 9.66046 74.1293 9.66046 75.2966 9.56318C75.2966 9.56318 75.3453 9.56318 75.3939 9.51454C75.3939 9.41726 75.3453 9.31999 75.3453 9.27135C74.1779 6.40165 73.0592 3.58059 71.9892 0.710889ZM69.995 6.06117C70.4327 4.79656 70.8705 3.58059 71.4055 2.17006C71.8919 3.53195 72.3296 4.74792 72.7674 6.06117C71.7946 6.06117 70.9191 6.06117 69.995 6.06117Z" fill="white"/>
<path d="M184.929 9.51467C185.464 9.61195 185.707 9.41739 185.853 8.88236C185.95 8.39597 186.193 7.95822 186.339 7.52047C186.437 7.18 186.583 7.03408 186.972 7.08272C187.847 7.13136 188.771 7.08272 189.647 7.08272C189.987 7.08272 190.133 7.18 190.231 7.52047C190.474 8.20142 190.717 8.88236 190.96 9.51467C191.398 9.51467 191.787 9.51467 192.225 9.51467C192.176 9.36875 192.176 9.27147 192.127 9.17419C191.057 6.35313 189.939 3.53207 188.869 0.711014C188.723 0.321902 188.48 0.370541 188.188 0.321902C187.799 0.273263 187.701 0.516458 187.604 0.808292C186.583 3.53207 185.513 6.3045 184.491 9.02828C184.442 9.17419 184.394 9.32011 184.345 9.51467C184.588 9.51467 184.734 9.51467 184.929 9.51467ZM188.188 2.3161C188.236 2.3161 188.285 2.3161 188.334 2.3161C188.771 3.53207 189.209 4.74805 189.647 6.0613C188.723 6.0613 187.847 6.0613 186.874 6.0613C187.312 4.79669 187.75 3.53207 188.188 2.3161Z" fill="white"/>
<path d="M254.628 8.97951C254.823 8.34721 254.92 7.52034 255.358 7.22851C255.844 6.88804 256.671 7.08259 257.352 7.08259C258.86 7.08259 258.86 7.08259 259.395 8.49312C259.784 9.56318 259.784 9.56318 261.049 9.51454C261 9.31999 260.952 9.12543 260.854 8.97951C259.784 6.25573 258.714 3.53195 257.693 0.808167C257.595 0.516333 257.45 0.321777 257.109 0.321777C256.769 0.321777 256.574 0.419055 256.428 0.759528C255.65 2.80236 254.872 4.8452 254.093 6.88804C253.753 7.7149 253.461 8.5904 253.072 9.56318C253.704 9.36862 254.385 9.90365 254.628 8.97951ZM257.109 2.17006C257.595 3.53195 258.033 4.74792 258.471 6.06117C257.498 6.06117 256.671 6.06117 255.699 6.06117C256.185 4.79656 256.623 3.53195 257.109 2.17006Z" fill="white"/>
<path d="M94.4116 1.10008C93.9252 2.36469 93.4388 3.67794 92.9524 4.94256C92.3687 6.45036 91.8337 7.95817 91.2014 9.51462C91.4446 9.51462 91.6392 9.46598 91.8337 9.51462C92.3687 9.6119 92.6119 9.3687 92.7092 8.88231C92.8551 8.39592 93.0011 7.90953 93.2443 7.47178C93.3415 7.27723 93.5847 7.08267 93.7793 7.08267C94.7034 7.03403 95.6276 7.08267 96.5031 7.03403C96.8435 7.03403 96.9894 7.13131 97.0867 7.47178C97.2813 8.05545 97.4758 8.59048 97.719 9.17414C97.7677 9.32006 98.0109 9.46598 98.1568 9.51462C98.4486 9.56326 98.7891 9.51462 99.1296 9.51462C97.9136 6.40172 96.7463 3.38611 95.5789 0.370492C94.7521 0.273214 94.7521 0.273214 94.4116 1.10008ZM93.8279 6.06125C94.2657 4.79664 94.7034 3.58066 95.1412 2.36469C95.1898 2.36469 95.2384 2.36469 95.2871 2.36469C95.7248 3.58066 96.1626 4.79664 96.6003 6.06125C95.6276 6.06125 94.7521 6.06125 93.8279 6.06125Z" fill="white"/>
<path d="M36.8231 9.02826C36.7258 9.17418 36.6285 9.32009 36.5312 9.46601C37.7959 9.56329 37.7959 9.56329 38.4282 8.63915C39.0605 7.71501 39.6928 6.79087 40.4224 5.81809C41.1033 6.8395 41.7843 7.71501 42.3193 8.68779C42.757 9.51465 43.3893 9.66056 44.2162 9.46601C44.1189 9.27145 44.0217 9.12554 43.9244 8.97962C43.1462 7.76365 42.3193 6.54767 41.4924 5.3317C41.2492 4.99122 41.2492 4.74803 41.4924 4.40756C42.3193 3.24022 43.1462 2.07289 43.9244 0.90555C44.0217 0.759634 44.1676 0.565078 44.2648 0.419161C43.3893 0.175966 42.757 0.370522 42.3679 1.19738C42.1734 1.63513 41.8329 2.02425 41.5411 2.41336C41.2006 2.89975 40.8601 3.43478 40.471 3.96981C39.8387 2.99703 39.1578 2.12152 38.6714 1.14875C38.2336 0.273244 37.6013 0.273244 36.7744 0.370522C36.8717 0.565078 36.969 0.710995 37.0663 0.90555C37.8445 2.12152 38.6227 3.28886 39.4496 4.50483C39.6441 4.79667 39.6441 5.03986 39.4496 5.3317C38.5741 6.54767 37.6986 7.81228 36.8231 9.02826Z" fill="white"/>
<path d="M21.8424 0.419211C20.9669 0.321933 20.0427 0.419211 19.0699 0.419211C19.0699 3.43483 19.0699 6.45044 19.0699 9.46606C19.4591 9.46606 19.7995 9.46606 20.1886 9.46606C20.1886 9.36878 20.2373 9.32014 20.2373 9.2715C20.2373 8.6392 20.2373 8.00689 20.2373 7.32594C20.2373 6.20725 20.2373 6.20725 21.3073 6.15861C21.4533 6.15861 21.5992 6.15861 21.6965 6.10997C23.2529 5.91541 24.2257 4.894 24.2743 3.43483C24.2743 1.73246 23.4475 0.662406 21.8424 0.419211ZM21.0641 5.18583C20.1886 5.23447 20.1886 5.23447 20.1886 4.35897C20.1886 3.38619 20.1886 2.41341 20.1886 1.34335C20.5291 1.34335 20.7237 1.34335 20.9182 1.34335C22.1828 1.34335 22.9611 2.0243 22.9611 3.19163C23.0097 4.40761 22.3288 5.13719 21.0641 5.18583Z" fill="white"/>
<path d="M166.786 7.32588C166.786 6.20719 166.786 6.20719 167.856 6.15855C168.002 6.15855 168.148 6.15855 168.246 6.10991C169.656 5.96399 170.629 5.03985 170.823 3.7266C171.018 2.31607 170.386 1.10009 169.218 0.613705C168.051 0.127315 166.835 0.37051 165.619 0.321871C165.619 3.43476 165.619 6.45038 165.619 9.466C166.008 9.466 166.349 9.466 166.786 9.466C166.786 8.73641 166.786 8.05547 166.786 7.32588ZM166.786 1.44057C168.246 1.19737 169.17 1.63512 169.461 2.65654C169.948 4.26163 168.683 5.62352 167.03 5.23441C166.932 5.18577 166.786 5.03985 166.786 4.94257C166.786 3.7266 166.786 2.55926 166.786 1.44057Z" fill="white"/>
<path d="M162.068 8.49331C160.95 8.49331 159.831 8.49331 158.664 8.49331C158.664 7.61781 158.712 6.74231 158.664 5.91545C158.664 5.42906 158.81 5.33178 159.247 5.33178C160.026 5.38042 160.804 5.33178 161.582 5.33178C161.582 4.94267 161.582 4.65084 161.582 4.26172C160.609 4.26172 159.636 4.26172 158.712 4.26172C158.712 3.2403 158.712 2.31616 158.712 1.34338C159.442 1.34338 160.171 1.34338 160.901 1.34338C161.825 1.34338 161.874 1.29475 161.971 0.370605C160.463 0.370605 159.004 0.370605 157.496 0.370605C157.496 3.43486 157.496 6.45048 157.496 9.46609C159.053 9.46609 160.561 9.46609 162.068 9.46609C162.068 9.17426 162.068 8.88242 162.068 8.49331Z" fill="white"/>
<path d="M12.1632 9.51455C12.6009 9.51455 12.9901 9.51455 13.4278 9.51455C13.4278 6.79077 13.4278 4.11563 13.4278 1.39185C14.3033 1.39185 15.1302 1.39185 15.957 1.39185C16.0543 1.05137 16.1516 0.710901 16.2975 0.419067C14.0115 0.419067 11.8227 0.419067 9.58533 0.419067C9.58533 0.75954 9.58533 1.05137 9.58533 1.44049C10.4608 1.44049 11.2877 1.44049 12.2118 1.44049C12.1632 4.11563 12.1632 6.79077 12.1632 9.51455Z" fill="white"/>
</svg>
