<svg width="182" height="51" viewBox="0 0 182 51" fill="none" xmlns="http://www.w3.org/2000/svg">
<g clip-path="url(#clip0_93_5518)">
<mask id="mask0_93_5518" style="mask-type:luminance" maskUnits="userSpaceOnUse" x="0" y="0" width="182" height="51">
<path d="M181.8 0.258057H0.689087V50.2581H181.8V0.258057Z" fill="white"/>
</mask>
<g mask="url(#mask0_93_5518)">
<path d="M47.1097 23.6704H57.0808V32.8682L62.5989 23.6704H73.5316L65.0578 35.7855L73.7769 49.2174H62.3148L57.0808 39.5097V49.2174H47.1097V23.6704Z" fill="white"/>
<path d="M44.5937 48.4212C43.032 49.2603 40.8957 49.9896 37.9013 49.9896C29.7823 49.9896 24.0191 44.626 24.0191 36.448C24.0191 27.1794 31.4215 22.913 37.7592 22.913C39.7858 22.913 42.5996 23.4228 44.5937 24.8428V33.7824C43.0642 31.8524 40.8247 31.078 39.0758 31.078C35.3713 31.078 33.5965 33.5952 33.5965 36.6998C33.5965 39.9464 35.907 41.8053 39.0435 41.8053C41.2507 41.8053 43.174 40.7856 44.5937 39.4688V48.4212Z" fill="white"/>
<path d="M10.6538 42.9249V39.091H11.8606C12.8223 39.091 14.3583 39.2717 14.3583 40.9887C14.3583 42.7766 12.7835 42.9249 11.8606 42.9249H10.6538ZM0.689087 23.5098V49.0569H15.423C22.3351 49.0569 23.8324 44.5257 23.8324 41.9374C23.8324 38.4714 21.5156 35.9541 18.308 35.4055V35.3345C20.3732 34.7149 22.6513 32.8882 22.6513 30.0095C22.6513 28.0345 21.9028 23.5098 14.7454 23.5098H0.689087ZM10.6538 33.2174V29.6416H11.5831C13.3256 29.6416 13.7904 30.5582 13.7904 31.4295C13.7904 32.3009 13.3256 33.2174 11.5831 33.2174H10.6538Z" fill="white"/>
<path d="M132.046 26.9271L129.2 27.0368L128.942 26.3397L126.199 26.1461L126.187 25.6362L123.249 25.5909L123.734 26.6494L125.044 26.8044L124.883 26.4623L126.07 27.2562L128.039 27.7016L129.349 27.7468L132.647 27.3079L132.046 26.9271Z" fill="white"/>
<path d="M124.789 24.4496L123.446 24.2688C123.446 24.2688 123.485 23.8042 122.963 23.546C122.439 23.2878 122.562 23.5267 122.562 23.5267L122.052 23.1522L121.11 22.9908L121.033 22.2872L119.806 22.2226L119.832 21.8742L118.877 21.7581L118.47 21.3901L118.6 20.99L118.36 20.6285L117.219 20.0863L116.263 19.7056L115.631 18.9761L114.882 18.3242L113.914 17.3754L111.5 16.5299L109.209 14.8388L108.28 14.445L107.299 13.9609L105.214 12.8379L102.149 11.1275L95.3595 7.8292L93.4233 6.97075C92.3262 6.49311 92.1455 6.24139 92.1197 6.09939C91.1257 5.86703 90.7966 5.69275 90.2803 5.16993C89.7512 5.18931 88.583 4.51158 88.2602 4.20176C88.2602 4.1824 86.2596 3.60149 86.1306 3.48531C86.1241 3.36268 80.9417 1.53605 80.3092 1.38114C79.8574 1.34242 78.6053 1.11005 78.4312 1.02614C78.2182 1.02614 77.4244 0.774414 77.1016 0.742137C76.0239 0.619502 74.9913 0.451689 73.8813 0.432327C73.0874 0.425871 72.6356 0.432327 71.9386 0.258057C71.6933 0.412968 70.0669 0.122507 69.4925 0.548505C68.8408 0.574323 67.3564 0.903505 66.9433 1.1036C66.0592 1.14233 64.549 2.1105 64.0391 2.36222C63.7874 2.48486 63.5164 2.61396 63.2453 2.74304C64.8653 3.31749 66.7111 3.99521 66.7111 4.06622C66.8401 4.1824 68.8344 4.76331 68.8408 4.77621C69.1635 5.09249 70.3316 5.76375 70.8607 5.74439C71.377 6.26721 71.7127 6.44147 72.7065 6.67383C72.7325 6.81585 72.9066 7.06757 74.0039 7.54521L75.9399 8.40364L82.7294 11.702L85.7949 13.4123L87.8795 14.5354L88.8605 15.0194L89.7899 15.4132L90.5513 15.9749L92.0487 16.5557L95.424 17.6529L99.4964 19.2408L101.013 19.7636L102.543 20.2413L103.265 20.1057L104.059 20.3768L104.937 21.1642L105.834 20.8674L106.441 20.9769L106.925 21.6096L107.241 21.984L108.009 22.2164L108.771 22.3132L109.674 22.1453L110.732 22.2357L111.107 22.8682L112.585 23.1264L113.643 23.2103L114.708 23.2942L115.521 23.675L116.27 24.4883L117.334 24.7078L120.09 25.1079L122.588 24.8046L124.214 24.8819L124.789 24.4496Z" fill="white"/>
<path d="M102.423 28.4875L105.359 28.5327L105.378 29.0362L108.115 29.2363L108.379 29.9398L111.219 29.8235L111.832 30.2044L108.528 30.6434L107.218 30.5981L105.243 30.1592L104.055 29.3524L104.217 29.701L102.907 29.5525L102.423 28.4875Z" fill="white"/>
<path d="M102.731 27.2826C102.731 27.2826 102.77 26.8178 102.247 26.5597C101.724 26.295 101.84 26.5403 101.84 26.5403L101.33 26.166L100.388 26.0046L100.311 25.3011L99.0909 25.2431L99.1231 24.8944L98.1615 24.7782L97.755 24.4168L97.884 24.0165L97.6387 23.6551L96.4964 23.1064L95.5413 22.7257L94.9088 22.0093L94.1537 21.3508L93.1856 20.4021L90.7719 19.5565L88.4809 17.8719L87.5515 17.4781L86.5642 16.994L84.4858 15.871L81.4139 14.154L74.631 10.8559L72.695 9.99737C71.5977 9.51973 71.417 9.26804 71.3911 9.12601C70.3974 8.89366 70.0681 8.71939 69.5454 8.19658C69.0226 8.2224 67.848 7.54466 67.5253 7.2284C67.5253 7.20902 65.531 6.62814 65.402 6.51194C65.3956 6.39576 60.2132 4.56268 59.5807 4.40777C59.1225 4.37551 57.877 4.13669 57.7027 4.05923C57.4897 4.06569 56.6959 3.81395 56.3732 3.77523C55.2953 3.65261 54.2627 3.48477 53.1526 3.46541C52.3588 3.45251 51.9136 3.46541 51.2102 3.29761C50.9584 3.45251 49.3386 3.15559 48.7576 3.58805C48.1123 3.61387 46.6279 3.94305 46.215 4.14314C45.3307 4.17541 43.8205 5.15005 43.3042 5.40177C42.859 5.62123 42.3491 5.84068 41.9296 6.09886C41.736 6.25377 38.8963 7.66084 38.709 7.83514C38.7478 7.93194 35.9276 9.61015 35.6629 9.85536C35.5467 9.98451 34.7916 10.2878 34.6045 10.4685C34.4109 10.6558 33.6559 11.3335 33.3977 11.4561C33.288 11.6885 32.5715 11.9467 32.4554 12.1855C32.2877 12.4243 31.4292 12.8374 31.2938 12.9988C31.2679 13.0181 30.7967 13.4054 30.416 13.7216C30.261 13.9282 30.0997 14.1412 29.9449 14.3542C29.7577 14.4253 29.0026 14.8576 28.8089 15.0061C28.8283 15.4579 28.8606 16.1743 28.1507 16.0387L27.3181 16.5293C27.4214 16.5229 26.8793 17.3232 26.434 17.8783C26.1693 18.2011 24.9496 18.6465 24.7108 18.9756C24.2203 19.6533 23.5942 20.2794 23.1104 20.9443V20.9958H23.1683C23.1749 21.0862 23.6395 21.0733 23.704 21.254C23.8008 21.5187 23.5105 21.7511 23.4394 21.9835L23.4975 21.9769V22.0286C23.8717 22.0157 24.2396 21.6219 24.5431 21.4606C24.7947 21.3703 25.0528 21.2606 25.3046 21.1636C25.7562 20.899 26.2016 20.6344 26.6534 20.3633C30.0158 18.5432 33.3718 16.7165 36.7342 14.8899C38.3412 14.025 39.6256 13.2182 41.3939 12.2371C41.8198 12.0048 43.4332 10.9139 44.6595 10.8365C46.202 10.7397 48.0542 11.1334 48.5512 11.3399C49.0287 11.5078 50.1968 12.1016 50.7843 12.2436C50.965 12.3145 51.3006 12.5534 51.3779 12.5534C51.436 12.6373 52.5461 12.8116 53.1333 13.0181C53.3335 13.1472 53.527 13.2633 53.7271 13.3795C54.6888 13.6635 57.0894 14.2251 57.9609 14.4961C58.6965 14.7221 59.1354 15.1351 59.5034 15.2126C60.0066 15.5611 60.1164 15.3804 60.7295 15.6837C61.6589 15.7806 62.2333 16.1099 62.2655 16.1421C62.5559 16.2582 62.7496 16.381 63.0399 16.4971C63.2787 16.5293 63.7369 16.8843 63.9178 16.9747C64.1372 17.02 65.6474 17.4782 65.8023 17.5557C66.0539 17.5299 67.1252 17.9944 67.2608 18.1107C67.5641 18.2526 67.9061 18.3301 68.2481 18.4011L71.333 19.6082L74.7019 20.7054L78.7743 22.2932L80.2974 22.816L81.827 23.2872L82.5434 23.1517L83.3372 23.4228L84.2149 24.2103L85.1119 23.9133L85.7187 24.0231L86.2026 24.6556L86.5125 25.0364L87.2804 25.2624L88.042 25.3592L88.9455 25.1912L90.004 25.2753L90.3782 25.9143L91.8561 26.166L92.9212 26.2499L93.986 26.3337L94.7991 26.7082L95.5413 27.515L96.6062 27.7279L99.3684 28.1346L101.866 27.8312L103.492 27.9086L104.073 27.4697L102.731 27.2826Z" fill="white"/>
<path d="M82.0898 48.1835C81.6122 48.4352 80.9731 48.6482 80.115 48.6482C78.7208 48.6482 77.8689 48.1642 77.1978 47.5379C76.2748 46.6538 75.9199 45.6663 75.9199 44.4852C75.9199 43.0457 76.52 42 77.1978 41.3675C77.998 40.6124 78.9983 40.3154 80.1278 40.3154C80.6894 40.3154 81.3604 40.4122 82.0898 40.806V42.6197C81.3604 41.7806 80.4506 41.7225 80.1599 41.7225C78.5595 41.7225 77.5205 43.0457 77.5205 44.5108C77.5205 46.2795 78.8823 47.2347 80.2246 47.2347C80.9603 47.2347 81.625 46.912 82.0898 46.3633V48.1835Z" fill="white"/>
<path d="M86.639 48.4635H85.0771V41.8348H83.283V40.4985H88.4331V41.8348H86.639V48.4635Z" fill="white"/>
<path d="M90.0093 40.4985V48.4699H91.5711V45.5202H92.5779C93.4943 45.5202 94.1527 45.2556 94.598 44.8166C95.211 44.2099 95.2563 43.3451 95.2563 43.0352C95.2563 42.4608 95.0884 41.6862 94.4431 41.1117C93.8557 40.5953 93.2362 40.5051 92.3391 40.5051H90.0093V40.4985ZM91.5711 41.8348H92.1067C92.4811 41.8348 92.8876 41.8541 93.2104 42.0865C93.4427 42.2542 93.6557 42.5512 93.6557 42.9901C93.6557 43.3387 93.5137 43.6937 93.2298 43.9195C92.8942 44.1777 92.507 44.1777 92.2101 44.1777H91.5775V41.8348H91.5711Z" fill="white"/>
<path d="M101.923 48.4647H103.594L100.232 40.3256H99.0575L95.5983 48.4647H97.2891L97.9991 46.7929H101.22L101.923 48.4647ZM98.4895 45.5279L99.6383 42.6685L100.768 45.5279H98.4895Z" fill="white"/>
<path d="M107.149 44.2616L104.767 40.4985H106.632L108.033 42.9642L109.504 40.4985H111.376L108.917 44.2616L111.647 48.4635H109.782L108.033 45.5462L106.194 48.4635H104.322L107.149 44.2616Z" fill="white"/>
<path d="M117.273 40.3202C114.762 40.3202 113.013 42.063 113.013 44.4898C113.013 46.9167 114.762 48.653 117.273 48.653C119.783 48.653 121.532 46.9167 121.532 44.4898C121.532 42.063 119.783 40.3202 117.273 40.3202ZM117.273 47.2394C115.718 47.2394 114.613 46.097 114.613 44.4898C114.613 42.8762 115.718 41.7273 117.273 41.7273C118.828 41.7273 119.932 42.8762 119.932 44.4898C119.932 46.097 118.828 47.2394 117.273 47.2394Z" fill="white"/>
<path d="M125.126 44.9974H125.7C126.036 44.9974 126.429 44.9974 126.765 45.1523C127.274 45.3783 127.351 45.8106 127.351 46.0624C127.351 46.3723 127.242 46.7531 126.855 46.979C126.507 47.1791 126.075 47.1984 125.79 47.1984H125.126V44.9974ZM123.57 40.4985V48.4699H126.248C126.945 48.4699 127.675 48.3538 128.275 47.8245C128.823 47.3339 128.953 46.682 128.953 46.2109C128.953 45.7913 128.855 45.1716 128.378 44.7135C128.178 44.5263 127.862 44.3003 127.339 44.2165C127.559 44.0938 128.237 43.6742 128.237 42.648C128.237 41.9767 127.959 41.3571 127.494 40.9956C126.849 40.4985 125.984 40.4985 125.545 40.4985H123.57ZM125.126 41.7637H125.583C126.216 41.7637 126.777 42.0412 126.777 42.7642C126.777 43.784 125.81 43.8098 125.571 43.8098H125.126V41.7637Z" fill="white"/>
<path d="M134.871 40.3202C132.361 40.3202 130.612 42.063 130.612 44.4898C130.612 46.9167 132.355 48.653 134.871 48.653C137.389 48.653 139.131 46.9167 139.131 44.4898C139.131 42.063 137.382 40.3202 134.871 40.3202ZM134.871 47.2394C133.317 47.2394 132.213 46.097 132.213 44.4898C132.213 42.8762 133.317 41.7273 134.871 41.7273C136.427 41.7273 137.531 42.8762 137.531 44.4898C137.525 46.097 136.427 47.2394 134.871 47.2394Z" fill="white"/>
<path d="M143.612 37.9486C143.864 38.6199 144.535 38.6456 144.689 38.6456C144.844 38.6456 145.515 38.6199 145.767 37.9486L146.844 38.3811C146.535 39.1878 145.793 39.7171 144.689 39.7171C143.586 39.7171 142.85 39.1943 142.533 38.3811L143.612 37.9486ZM142.721 40.4981V45.8489L147.129 40.3108H148.207V48.4631H146.644V43.0864L142.237 48.6179H141.159V40.4917H142.721V40.4981Z" fill="white"/>
<path d="M154.774 40.4985V43.9583C154.774 45.062 154.639 45.6623 154.484 46.0495C154.238 46.6498 153.792 47.1531 153.218 47.1274V50.2578H154.652V48.4635H159.557V50.2578H160.996V47.1274H160.156V40.4985H154.774ZM156.284 41.8348H158.608V47.1274H155.387C155.613 46.9144 155.846 46.624 156.013 46.1851C156.162 45.8042 156.284 45.191 156.284 43.9583V41.8348Z" fill="white"/>
<path d="M166.506 40.3202C163.996 40.3202 162.247 42.063 162.247 44.4898C162.247 46.9167 163.996 48.653 166.506 48.653C169.024 48.653 170.766 46.9167 170.766 44.4898C170.766 42.063 169.017 40.3202 166.506 40.3202ZM166.506 47.2394C164.95 47.2394 163.847 46.097 163.847 44.4898C163.847 42.8762 164.95 41.7273 166.506 41.7273C168.068 41.7273 169.166 42.8762 169.166 44.4898C169.166 46.097 168.061 47.2394 166.506 47.2394Z" fill="white"/>
<path d="M172.396 48.464L173.875 40.3507H174.958L177.121 45.5595L179.379 40.3507H180.463L181.799 48.464H180.218L179.501 43.5521L177.314 48.5672H176.881L174.784 43.5521L173.978 48.464H172.396Z" fill="white"/>
</g>
</g>
<defs>
<clipPath id="clip0_93_5518">
<rect width="181.111" height="50" fill="white" transform="translate(0.689087 0.258057)"/>
</clipPath>
</defs>
</svg>
