<svg width="377" height="31" viewBox="0 0 377 31" fill="none" xmlns="http://www.w3.org/2000/svg">
<path d="M207.231 30.1463C206.112 30.1516 205.001 29.9477 203.956 29.545C202.948 29.1574 202.028 28.5709 201.251 27.8204C200.447 27.0278 199.808 26.0847 199.37 25.0451C198.931 24.0054 198.701 22.8895 198.694 21.7611C198.687 20.6327 198.902 19.5139 199.327 18.4686C199.752 17.4233 200.379 16.472 201.172 15.669L201.251 15.5899C202.027 14.8344 202.947 14.2425 203.956 13.8495C205.011 13.4429 206.133 13.2389 207.263 13.2482C208.684 13.2414 210.088 13.5664 211.361 14.1976C211.896 14.4524 212.391 14.7828 212.832 15.1785C213.206 15.5124 213.527 15.902 213.782 16.3335L213.117 18.3113C212.827 17.916 212.486 17.5598 212.105 17.2512C211.691 16.9068 211.24 16.6096 210.76 16.3652C210.259 16.1006 209.728 15.8987 209.178 15.7639C208.604 15.617 208.014 15.5426 207.421 15.5424C206.512 15.5301 205.607 15.6746 204.747 15.9696C203.977 16.2301 203.271 16.6507 202.675 17.2038C202.102 17.7472 201.649 18.4048 201.346 19.1341C201.023 19.9491 200.867 20.8208 200.887 21.6972C200.876 22.5796 201.037 23.4556 201.361 24.2762C201.656 25.0144 202.116 25.6749 202.706 26.2065C203.311 26.7403 204.015 27.149 204.779 27.409C205.639 27.704 206.544 27.8486 207.453 27.8362C208.678 27.8613 209.889 27.5841 210.981 27.0293C211.901 26.5832 212.699 25.9208 213.307 25.099L213.94 27.0451C213.107 28.0096 212.077 28.7852 210.921 29.32C209.764 29.8548 208.506 30.1365 207.231 30.1463Z" fill="white"/>
<path d="M229.082 13.5331V15.7798H223.576V29.7824H221.456V15.764H215.886V13.5331H229.098H229.082Z" fill="white"/>
<path d="M242.531 18.5013C242.54 19.1795 242.411 19.8525 242.151 20.479C241.915 21.0686 241.565 21.6061 241.122 22.0612C240.675 22.5104 240.135 22.856 239.54 23.0739C238.875 23.3104 238.173 23.4282 237.467 23.4219H234.477V29.7508H232.357V13.5331H237.467C238.129 13.5161 238.787 13.6323 239.403 13.8748C240.019 14.1172 240.579 14.481 241.052 14.9445C241.524 15.408 241.898 15.9617 242.152 16.5727C242.406 17.1837 242.535 17.8395 242.531 18.5013ZM240.315 18.5013C240.322 18.1476 240.252 17.7968 240.11 17.4728C239.983 17.1631 239.8 16.879 239.572 16.6343C239.34 16.3965 239.067 16.2034 238.765 16.0647C238.443 15.9123 238.092 15.8314 237.736 15.8273H234.398V21.191H237.736C238.09 21.2152 238.444 21.1626 238.775 21.0369C239.106 20.9112 239.405 20.7153 239.653 20.4627C239.902 20.2102 240.092 19.9069 240.212 19.5738C240.331 19.2407 240.378 18.8856 240.347 18.5329L240.315 18.5013Z" fill="white"/>
<path d="M246.929 26.0009L245.347 29.7982H243.053L249.84 13.5331H252.198L258.891 29.7982H256.596L255.014 26.0009H246.945H246.929ZM254.049 23.7542L250.885 16.2545L247.72 23.7542H253.923H254.049Z" fill="white"/>
<path d="M260.33 29.7819L266.106 21.3645L260.647 13.4535H263.321L267.403 19.3393L271.533 13.501H274.191L268.732 21.412L274.57 29.8294H271.991L267.482 23.5005L263.052 29.8294H260.346L260.33 29.7819Z" fill="white"/>
<path d="M284.807 30.0986C283.674 30.1108 282.549 29.8956 281.5 29.4658C280.485 29.05 279.552 28.4551 278.747 27.7095C277.937 26.9582 277.291 26.0479 276.849 25.0356C276.393 23.9621 276.158 22.8079 276.158 21.6417C276.158 20.4756 276.393 19.3213 276.849 18.2479C277.291 17.2358 277.938 16.3256 278.747 15.5739C279.551 14.842 280.477 14.2582 281.485 13.8493C283.625 13.0073 286.005 13.0073 288.146 13.8493C289.187 14.2529 290.147 14.8426 290.978 15.5898C291.787 16.342 292.433 17.252 292.876 18.2637C293.334 19.3335 293.566 20.4862 293.557 21.6496C293.499 23.9243 292.549 26.0851 290.912 27.6657C289.275 29.2463 287.083 30.1201 284.807 30.0986ZM291.294 21.7129C291.298 20.8827 291.12 20.0618 290.772 19.308C290.441 18.5654 289.966 17.8962 289.374 17.3393C288.781 16.7824 288.084 16.349 287.323 16.0644C285.656 15.4308 283.815 15.4308 282.149 16.0644C281.388 16.3545 280.692 16.7935 280.102 17.3559C279.513 17.9183 279.041 18.5927 278.716 19.3396C278.385 20.0872 278.214 20.8956 278.214 21.7129C278.214 22.5303 278.385 23.3387 278.716 24.0862C279.046 24.8293 279.521 25.4989 280.113 26.0559C280.705 26.6128 281.403 27.0459 282.165 27.3298C283.832 27.962 285.672 27.962 287.339 27.3298C288.097 27.0434 288.791 26.6092 289.381 26.0524C289.97 25.4956 290.443 24.8273 290.772 24.0862C291.12 23.3324 291.298 22.5115 291.294 21.6813V21.7129Z" fill="white"/>
<path d="M305.661 21.1117C306.309 21.453 306.856 21.9609 307.243 22.5831C307.696 23.302 307.927 24.1385 307.908 24.9881C307.919 25.6987 307.784 26.4041 307.512 27.0608C307.268 27.6388 306.894 28.153 306.42 28.5639C305.96 28.9725 305.422 29.2846 304.838 29.4816C304.189 29.6905 303.511 29.7973 302.829 29.798H297.307V13.5329H302.053C302.734 13.5233 303.412 13.6194 304.063 13.8177C304.642 13.9938 305.18 14.2843 305.645 14.6721C306.333 15.3072 306.802 16.1432 306.987 17.0608C307.171 17.9784 307.062 18.9309 306.673 19.7826C306.428 20.2844 306.078 20.727 305.645 21.08L305.661 21.1117ZM303.129 27.4405C303.474 27.4423 303.817 27.3834 304.142 27.2665C304.457 27.1568 304.743 26.9784 304.98 26.7443C305.218 26.5126 305.411 26.2391 305.55 25.9374C305.702 25.6157 305.783 25.2649 305.787 24.909C305.787 24.5922 305.722 24.2789 305.597 23.9879C305.472 23.6969 305.289 23.4343 305.06 23.216C304.82 22.9736 304.534 22.7826 304.219 22.6547C303.903 22.5268 303.565 22.4648 303.224 22.4724H299.427V27.4089L303.129 27.4405ZM302.465 20.2256C303.093 20.238 303.705 20.0247 304.189 19.6244C304.424 19.4329 304.612 19.1915 304.741 18.9177C304.869 18.6439 304.935 18.3447 304.933 18.0422C304.934 17.7445 304.872 17.45 304.752 17.1775C304.632 16.905 304.457 16.6606 304.237 16.46C304.002 16.2393 303.726 16.067 303.425 15.953C303.123 15.8389 302.803 15.7854 302.481 15.7954H299.427V20.3838L302.465 20.2256Z" fill="white"/>
<path d="M313.999 26.0009L312.417 29.7982H310.123L316.815 13.5331H319.173L325.881 29.7982H323.587L322.005 26.0009H313.92H313.999ZM321.119 23.7542L317.955 16.2545L314.79 23.7542H320.992H321.119Z" fill="white"/>
<path d="M331.213 13.5331V20.2891H340.897V13.5331H343.033V29.7824H340.912V22.5042H331.213V29.7824H329.093V13.5331H331.213Z" fill="white"/>
<path d="M360.105 29.7824V16.8874L350.516 29.7824H348.127V13.5331H350.263V26.4598L359.915 13.5331H362.177V29.7824H360.057H360.105Z" fill="white"/>
<path d="M376.512 13.5331V15.7798H369.471V20.2891H375.8V22.5042H369.471V27.5357H376.512V29.7824H367.351V13.5331H376.512Z" fill="white"/>
<path d="M14.6762 13.9442C14.6825 14.9194 14.4998 15.8865 14.1382 16.7922C13.7777 17.6366 13.2378 18.3924 12.556 19.0073C11.886 19.6316 11.1016 20.1206 10.246 20.4471C9.29585 20.8057 8.28687 20.9828 7.27142 20.9692H4.42343V29.7822H0.800171V6.76097H7.31888C8.28189 6.71743 9.24358 6.8721 10.1444 7.21541C11.0452 7.55871 11.8658 8.08333 12.5556 8.75677C13.2454 9.43021 13.7895 10.2381 14.1542 11.1304C14.519 12.0227 14.6966 12.9804 14.6762 13.9442ZM4.42343 17.1086H7.7619C8.18036 17.1215 8.59721 17.0512 8.9883 16.9019C9.3794 16.7525 9.73697 16.527 10.0403 16.2384C10.3318 15.9463 10.5607 15.5978 10.713 15.2142C10.8653 14.8306 10.9379 14.42 10.9263 14.0075C10.9392 13.589 10.8689 13.1722 10.7195 12.7811C10.5702 12.39 10.3447 12.0324 10.0561 11.7291C9.76313 11.4223 9.40885 11.1806 9.0163 11.0198C8.62375 10.859 8.20174 10.7826 7.77773 10.7956H4.42343V17.1245V17.1086Z" fill="white"/>
<path d="M39.0581 19.5451H46.8742V13.5168H50.3709V29.7662H46.8742V23.2633H39.0581V29.782H35.5614V13.5327H39.0581V19.5609V19.5451Z" fill="white"/>
<path d="M62.9654 26.7286C63.91 26.7571 64.8495 26.5793 65.7185 26.2077C66.5874 25.8361 67.3649 25.2796 67.9968 24.5768L69.0253 27.2507C68.283 28.1628 67.3504 28.9015 66.2927 29.4153C65.235 29.9291 64.0778 30.2056 62.9021 30.2253C61.7424 30.2518 60.5882 30.0585 59.5003 29.6557C58.5015 29.3028 57.5859 28.748 56.8106 28.026C56.0195 27.2663 55.4039 26.3429 55.0069 25.3204C54.5685 24.1852 54.3484 22.9774 54.3582 21.7605C54.3528 20.6423 54.5512 19.5324 54.9436 18.4853C55.3015 17.4897 55.8376 16.5675 56.5258 15.7639C57.2355 14.956 58.1093 14.3087 59.089 13.8652C60.1507 13.3999 61.3 13.1679 62.4591 13.1849C63.5302 13.1669 64.5925 13.381 65.573 13.8125C66.5535 14.2441 67.429 14.8828 68.1392 15.6848C68.84 16.4674 69.3779 17.3818 69.7214 18.3745C70.0654 19.3942 70.2417 20.4629 70.2436 21.539C70.2467 21.968 70.215 22.3966 70.1486 22.8206H57.9023C58.1269 23.9762 58.7648 25.0104 59.6967 25.7297C60.6286 26.449 61.7906 26.8041 62.9654 26.7286ZM62.3167 16.8556C61.3269 16.7831 60.343 17.0601 59.5364 17.6383C58.7297 18.2165 58.1515 19.0594 57.9023 20.02H66.7152C66.4584 19.0669 65.8805 18.2315 65.0792 17.655C64.2778 17.0785 63.3021 16.7961 62.3167 16.8556Z" fill="white"/>
<path d="M24.5017 26.7284C25.4462 26.7559 26.3854 26.5776 27.2542 26.2061C28.123 25.8345 28.9006 25.2785 29.5332 24.5766L30.5616 27.2506C29.8194 28.1626 28.8867 28.9013 27.8291 29.4152C26.7714 29.929 25.6142 30.2054 24.4384 30.2251C23.2787 30.2516 22.1245 30.0583 21.0367 29.6555C20.0211 29.2878 19.094 28.711 18.3153 27.9626C17.5291 27.2019 16.9189 26.2784 16.5274 25.257C16.0879 24.122 15.8678 22.914 15.8787 21.697C15.8693 20.5799 16.0623 19.4702 16.4483 18.4218C16.8071 17.4266 17.3432 16.5046 18.0305 15.7004C18.7399 14.8921 19.6138 14.2448 20.5937 13.8018C21.6554 13.3365 22.8047 13.1045 23.9638 13.1214C25.0348 13.1045 26.0967 13.3191 27.0771 13.7505C28.0574 14.182 28.933 14.8201 29.6439 15.6213C30.3447 16.404 30.8826 17.3183 31.2261 18.3111C31.5766 19.3295 31.7583 20.3984 31.7641 21.4755C31.7684 21.9046 31.7367 22.3333 31.6692 22.7571H19.4387C19.6496 23.9243 20.2817 24.9735 21.215 25.7056C22.1483 26.4376 23.3178 26.8016 24.5017 26.7284ZM23.853 16.8554C22.8632 16.7829 21.8793 17.0599 21.0727 17.6381C20.2661 18.2163 19.6878 19.0592 19.4387 20.0199H28.3307C28.0719 19.0554 27.4845 18.2115 26.6699 17.6337C25.8553 17.056 24.8647 16.7808 23.8689 16.8554H23.853Z" fill="white"/>
<path d="M98.8341 30.2573C96.5681 30.2573 94.3949 29.3571 92.7926 27.7548C91.1903 26.1525 90.2902 23.9793 90.2902 21.7134C90.2902 19.4474 91.1903 17.2742 92.7926 15.6719C94.3949 14.0696 96.5681 13.1694 98.8341 13.1694C99.973 13.1396 101.103 13.3724 102.138 13.8499C103.172 14.3273 104.083 15.0365 104.799 15.9225L103.834 18.8179C102.593 17.6915 101.012 17.0121 99.3404 16.8876C98.6695 16.8247 97.9929 16.8994 97.3519 17.107C96.7108 17.3147 96.1189 17.651 95.6124 18.0954C95.1058 18.5397 94.6953 19.0827 94.4059 19.6912C94.1165 20.2997 93.9543 20.9609 93.9292 21.6342C93.9184 22.2978 94.0547 22.9554 94.3282 23.56C94.6018 24.1646 95.0059 24.7011 95.5115 25.1309C96.6064 26.063 98.0148 26.5438 99.4512 26.4758C101.21 26.4493 102.899 25.7795 104.198 24.593L105.226 27.4884C104.417 28.3754 103.429 29.0808 102.327 29.5581C101.225 30.0353 100.035 30.2737 98.8341 30.2573Z" fill="white"/>
<path d="M81.3981 30.2573C79.1321 30.2573 76.9589 29.3571 75.3566 27.7548C73.7543 26.1525 72.8541 23.9793 72.8541 21.7134C72.8541 19.4474 73.7543 17.2742 75.3566 15.6719C76.9589 14.0696 79.1321 13.1694 81.3981 13.1694C82.537 13.1396 83.6674 13.3724 84.7018 13.8499C85.7362 14.3273 86.6468 15.0365 87.363 15.9225L86.3979 18.8179C85.1571 17.6915 83.5755 17.0121 81.9044 16.8876C81.2335 16.8247 80.5569 16.8994 79.9158 17.107C79.2748 17.3147 78.6829 17.651 78.1764 18.0954C77.6698 18.5397 77.2593 19.0827 76.9699 19.6912C76.6805 20.2997 76.5183 20.9609 76.4932 21.6342C76.4824 22.2978 76.6186 22.9554 76.8922 23.56C77.1658 24.1646 77.5699 24.7011 78.0754 25.1309C79.1704 26.063 80.5788 26.5438 82.0151 26.4758C83.7743 26.4493 85.4628 25.7795 86.7618 24.593L87.7902 27.4884C86.9809 28.3754 85.9928 29.0808 84.8909 29.5581C83.7891 30.0353 82.5987 30.2737 81.3981 30.2573Z" fill="white"/>
<path d="M156.015 30.2573C153.749 30.2573 151.576 29.3571 149.974 27.7548C148.371 26.1525 147.471 23.9793 147.471 21.7134C147.471 19.4474 148.371 17.2742 149.974 15.6719C151.576 14.0696 153.749 13.1694 156.015 13.1694C157.154 13.1396 158.285 13.3724 159.319 13.8499C160.353 14.3273 161.264 15.0365 161.98 15.9225L161.015 18.8179C159.764 17.6908 158.17 17.0166 156.49 16.9034C155.819 16.8405 155.142 16.9152 154.501 17.1229C153.86 17.3305 153.268 17.6668 152.762 18.1112C152.255 18.5555 151.845 19.0986 151.555 19.7071C151.266 20.3156 151.104 20.9767 151.079 21.6501C151.068 22.3136 151.204 22.9712 151.478 23.5758C151.751 24.1804 152.155 24.7169 152.661 25.1468C153.756 26.0789 155.164 26.5597 156.601 26.4916C158.36 26.4651 160.048 25.7953 161.347 24.6088L162.376 27.5042C161.568 28.3836 160.584 29.0831 159.488 29.5574C158.393 30.0317 157.209 30.2702 156.015 30.2573Z" fill="white"/>
<path d="M120.874 29.7822V28.0892C120.248 28.7656 119.49 29.3057 118.646 29.6759C117.802 30.0461 116.891 30.2385 115.969 30.241C114.854 30.2568 113.747 30.0456 112.716 29.6201C111.684 29.1947 110.75 28.5639 109.97 27.7662C109.19 26.9685 108.581 26.0206 108.179 24.98C107.777 23.9393 107.59 22.8278 107.631 21.7129C107.535 20.6035 107.674 19.4862 108.04 18.4342C108.405 17.3823 108.988 16.4193 109.752 15.6083C110.515 14.7973 111.441 14.1566 112.468 13.7281C113.496 13.2996 114.603 13.0929 115.716 13.1215C117.617 13.1359 119.44 13.8776 120.811 15.1942V13.612H124.197V29.7822H120.874ZM111.096 21.6971C111.106 22.3503 111.248 22.9947 111.513 23.5914C111.779 24.188 112.163 24.7245 112.643 25.1683C113.122 25.6121 113.687 25.954 114.302 26.1733C114.917 26.3925 115.571 26.4845 116.223 26.4437C117.073 26.4818 117.922 26.328 118.705 25.9939C119.488 25.6598 120.186 25.1538 120.748 24.5134V18.77C120.175 18.1454 119.474 17.6512 118.693 17.3209C117.913 16.9906 117.07 16.8319 116.223 16.8555C115.56 16.8022 114.894 16.8886 114.266 17.1092C113.639 17.3297 113.066 17.6796 112.582 18.136C112.099 18.5924 111.717 19.1453 111.461 19.7587C111.205 20.3722 111.081 21.0326 111.096 21.6971Z" fill="white"/>
<path d="M132.757 19.5451H140.668V13.5168H144.164V29.7662H140.668V23.2633H132.757V29.782H129.26V13.5327H132.757V19.5609V19.5451Z" fill="white"/>
<path d="M170.255 25.3046H165.777V29.7822H170.255V25.3046Z" fill="white"/>
<path d="M178.135 23.2634L165.777 0.258057H190.492L178.135 23.2634Z" fill="white"/>
</svg>
