<svg width="188" height="41" viewBox="0 0 188 41" fill="none" xmlns="http://www.w3.org/2000/svg">
<path d="M187.243 0.258057H0.512329V40.2581H187.243V0.258057Z" fill="white"/>
<mask id="mask0_93_5565" style="mask-type:luminance" maskUnits="userSpaceOnUse" x="9" y="9" width="170" height="23">
<path d="M178.012 9.48889H9.74316V31.0274H178.012V9.48889Z" fill="white"/>
</mask>
<g mask="url(#mask0_93_5565)">
<path d="M57.8669 31.0274H62.5153V13.6289H68.3666V9.48889H57.8669V31.0274Z" fill="black"/>
<path d="M113.701 13.6289H118.35V31.0274H122.943V13.6289H127.592V9.48889H113.701V13.6289Z" fill="black"/>
<path d="M9.74316 9.48889V31.0274H14.2821V25.5248H20.1335L23.5241 22.4329V12.5808L20.2976 9.48889H9.74316ZM18.9304 21.3848H14.2821V13.6289H18.9304V21.3848Z" fill="black"/>
<path d="M29.4301 9.48889L26.1489 12.5808V27.883L29.3754 30.975H37.5235L40.75 27.883V12.5808L37.5783 9.48889H29.4301ZM36.2112 26.835H30.7972V13.6289H36.2112V26.835Z" fill="black"/>
<path d="M48.3515 13.6289H54.9136V9.48889H46.9844L43.7579 12.5808V27.883L46.9844 31.0274H54.9684V26.835H48.3515V13.6289Z" fill="black"/>
<path d="M73.015 9.48889L69.7886 12.5808V27.883L73.015 30.975H81.1633L84.3898 27.883V12.5808L81.1633 9.48889H73.015ZM79.7963 26.835H74.3821V13.6289H79.7963V26.835Z" fill="black"/>
<path d="M129.943 9.48889V31.0274H134.482V25.5248H140.334L143.724 22.4329V12.5808L140.498 9.48889H129.943ZM139.131 21.3848H134.482V13.6289H139.131V21.3848Z" fill="black"/>
<path d="M91.9911 13.6289H98.4988V9.48889H90.624L87.3428 12.5808V27.883L90.624 31.0274H98.5536V26.835H91.9911V13.6289Z" fill="black"/>
<path d="M105.389 13.6289H111.952V9.48889H104.022L100.796 12.5808V27.883L104.022 31.0274H112.006V26.835H105.389V13.6289Z" fill="black"/>
<path d="M174.676 19.9699L177.958 9.48889H173.309L170.848 17.6117H169.973L167.512 9.48889H162.864L166.145 20.0223L162.809 31.0274H167.403L170.028 22.5378H170.794L173.419 31.0274H178.012L174.676 19.9699Z" fill="black"/>
<path d="M157.122 31.0274H161.771L157.177 9.48889H149.302L144.654 31.0274H149.193L150.232 25.8917H156.138L157.122 31.0274ZM151.052 21.8565L152.747 13.6813H153.622L155.317 21.8565H151.052Z" fill="black"/>
</g>
</svg>
