<svg width="181" height="57" viewBox="0 0 181 57" fill="none" xmlns="http://www.w3.org/2000/svg">
<path d="M11.9504 18.5878C13.9421 13.7454 17.1937 9.52432 21.3675 6.36289C25.8057 2.94029 31.1119 0.825855 36.6877 0.258057V31.3628C36.6877 32.3337 36.6877 32.3337 37.6661 32.3356C38.1649 32.3356 38.6655 32.3203 39.1643 32.3356C39.6021 32.3527 39.7696 32.1452 39.7582 31.7378C39.7582 31.5475 39.7582 31.3571 39.7582 31.1668V9.95498C43.7313 11.317 47.3731 13.5002 50.4469 16.3625C56.0358 21.5022 59.2738 28.6464 59.7155 34.9511H27.1278C26.1456 34.9511 26.1456 34.9511 26.1437 35.9143C26.1437 37.9074 26.1437 37.9074 28.1348 37.9074H48.0579C46.1983 42.5171 43.1825 46.57 39.3013 49.6754C34.6756 53.4236 29.3855 55.5766 23.3473 56.2581V55.1045C23.3473 46.7997 23.3473 38.495 23.3473 30.1902C23.3473 28.4351 23.2597 26.6781 23.235 24.923C23.235 24.5118 23.0693 24.369 22.6829 24.3957C21.9062 24.449 21.1315 24.4927 20.273 24.546V46.6144C15.4169 44.8784 11.3584 42.2247 7.97573 38.547C3.58223 33.7766 0.995244 28.18 0.277588 21.624H32.7415C33.7828 21.624 33.7828 21.624 33.7866 20.5713C33.7866 18.5878 33.7866 18.5878 31.8011 18.5878H11.9504Z" fill="white"/>
<path d="M179.139 53.9395H178.289C140.555 53.9395 102.822 53.9445 65.0893 53.9547C64.3887 53.9547 64.1508 53.8119 64.1641 53.0638C64.2117 50.256 64.1831 47.4482 64.1831 44.6423C64.1831 43.6201 64.1831 43.6201 65.1787 43.6201H169.816C172.671 43.6201 175.526 43.6391 178.382 43.6086C179.012 43.6086 179.195 43.7876 179.187 44.4139C179.158 47.3397 179.176 50.2674 179.174 53.1932C179.172 53.4026 179.155 53.6139 179.139 53.9395ZM154.427 49.7515C154.427 48.5047 154.379 47.4672 154.442 46.4241C154.488 45.6474 154.012 45.7159 153.528 45.7197C153.045 45.7235 152.577 45.6322 152.607 46.4145C152.66 48.0535 152.62 49.6944 152.624 51.3353C152.624 52.0968 152.759 52.2338 153.49 52.1139C153.787 52.0502 154.061 51.9097 154.286 51.7065C155.47 50.6786 156.631 49.6259 157.804 48.5827C157.994 48.419 158.185 48.2686 158.527 47.9907C158.527 49.2166 158.554 50.2541 158.518 51.2897C158.489 52.0949 159.02 51.9864 159.519 51.9959C160.018 52.0054 160.442 51.9959 160.423 51.2687C160.378 49.6545 160.423 48.0326 160.4 46.4203C160.4 46.1404 160.296 45.6588 160.168 45.6265C159.78 45.5807 159.387 45.615 159.013 45.7273C158.849 45.7673 158.725 45.9653 158.582 46.0909L154.427 49.7515ZM124.35 48.9273V50.8518C124.35 52.0568 124.379 52.0701 125.582 51.994C125.991 51.9692 126.189 51.836 126.166 51.3982C126.139 50.8766 126.178 50.3512 126.166 49.8296C126.149 49.4336 126.299 49.2585 126.699 49.2757C127.506 49.289 128.313 49.2909 129.121 49.2757C129.56 49.2661 129.711 49.466 129.701 49.8791C129.688 50.3778 129.718 50.8766 129.701 51.3753C129.676 52.0454 130.137 52.0054 130.571 51.9864C131.005 51.9673 131.544 52.1596 131.544 51.4153C131.544 49.7021 131.544 47.9888 131.529 46.2756C131.519 46.1684 131.483 46.0651 131.425 45.9744C131.367 45.8837 131.289 45.8081 131.195 45.754C130.183 45.3999 129.703 45.754 129.701 46.8257C129.701 47.0408 129.686 47.2559 129.701 47.4672C129.733 47.9127 129.574 48.1221 129.092 48.0935C128.521 48.0593 127.95 48.0935 127.379 48.0935C125.997 48.0726 126.183 48.2839 126.172 46.8847C126.172 45.6664 126.145 45.6607 124.954 45.7121C124.489 45.7331 124.337 45.9025 124.352 46.3612C124.367 47.2102 124.348 48.0669 124.348 48.9216L124.35 48.9273ZM172.46 49.6469L172.65 49.742C172.65 50.0961 172.65 50.4483 172.65 50.8004C172.65 52.0321 172.719 52.0796 173.941 51.9959C174.346 51.9692 174.542 51.8303 174.538 51.3963C174.527 49.7097 174.523 48.0231 174.538 46.3365C174.538 45.853 174.314 45.714 173.887 45.7197C173.198 45.7293 172.503 45.6683 171.822 45.7407C171.142 45.7988 170.472 45.9454 169.829 46.1766C169.51 46.291 169.239 46.5082 169.058 46.794C168.876 47.0797 168.795 47.4178 168.828 47.7547C168.87 48.5161 169.309 49.0206 170 49.3137C170.166 49.3842 170.331 49.4489 170.64 49.5726L168.342 51.8208C169.372 52.2205 170.179 52.0625 170.864 51.3411C171.411 50.7738 171.931 50.2065 172.458 49.6411L172.46 49.6469ZM107.899 51.8988C109 52.0492 109.909 52.2072 110.374 51.0422C110.446 50.8652 110.827 50.73 111.071 50.7186C111.876 50.67 112.684 50.67 113.49 50.7186C113.642 50.7366 113.789 50.7846 113.922 50.8597C114.056 50.9349 114.173 51.0357 114.267 51.1564C114.874 52.0359 115.445 52.2357 116.587 51.815C116.484 51.6057 116.397 51.3905 116.279 51.1945C115.342 49.598 114.402 48.0028 113.458 46.4088C112.807 45.3105 111.855 45.3028 111.204 46.3803C110.911 46.8676 110.61 47.3511 110.317 47.8403C109.531 49.1576 108.746 50.4749 107.899 51.8988ZM78.7361 51.8455C80.101 52.2072 80.4722 52.0625 81.1251 51.1317C81.3079 50.9062 81.5717 50.7614 81.8599 50.7281C82.6668 50.6738 83.4764 50.6738 84.2832 50.7281C84.593 50.7641 84.8761 50.9207 85.0713 51.164C85.6919 52.0378 86.282 52.2395 87.3461 51.8284C87.3475 51.7597 87.3366 51.6914 87.3137 51.6266C86.2116 49.7382 85.1151 47.846 83.9939 45.9691C83.6988 45.4761 82.5966 45.5084 82.2806 46.0034C81.7952 46.7648 81.3288 47.5415 80.8644 48.3143C80.1657 49.466 79.4671 50.6215 78.7361 51.8455ZM95.1375 48.8283C95.1375 49.5897 95.1737 50.3512 95.1261 51.1126C95.0842 51.7979 95.3336 52.0435 96.0208 52.0111C96.9536 51.9673 96.9821 51.9807 96.984 51.0593C96.984 50.8461 96.9973 50.631 96.984 50.4178C96.944 49.9438 97.1154 49.7325 97.6274 49.7439C98.1263 49.7555 98.6247 49.7076 99.1122 49.6012C99.8965 49.4279 100.62 49.11 100.879 48.2458C101.216 47.1208 100.35 45.9767 98.9942 45.8473C97.9339 45.7445 96.8622 45.7749 95.7962 45.7292C95.2955 45.7083 95.1261 45.9425 95.1356 46.4164C95.1508 47.2064 95.1375 48.0155 95.1375 48.8226V48.8283ZM142.044 45.7254C141.307 45.7254 140.569 45.735 139.832 45.7254C139.402 45.7254 139.179 45.8473 139.191 46.3384C139.191 46.801 139.417 46.9095 139.811 46.8962C140.049 46.8847 140.291 46.919 140.525 46.8962C141.066 46.8314 141.222 47.058 141.206 47.5872C141.17 48.7998 141.233 50.0142 141.18 51.2249C141.151 51.8874 141.416 52.0244 142.006 52.0206C142.596 52.0168 143.013 51.9559 142.969 51.1869C142.914 50.2617 142.954 49.3328 142.954 48.4038C142.954 46.9932 142.954 46.9818 144.328 46.9076C144.709 46.8866 144.875 46.761 144.875 46.3593C144.875 45.9577 144.781 45.7254 144.328 45.7331C143.567 45.7292 142.805 45.7197 142.044 45.7197V45.7254ZM68.531 48.8378C68.531 49.6697 68.5652 50.5016 68.5214 51.3315C68.4796 52.1291 69.024 51.9769 69.4732 51.9845C69.9225 51.9921 70.3832 52.0796 70.3546 51.3372C70.3051 50.0561 70.3546 48.7712 70.3318 47.4901C70.3222 47.0199 70.4821 46.8543 70.9447 46.8771C71.5158 46.9057 72.0869 46.8771 72.658 46.8771C73.0577 46.8866 73.2842 46.761 73.288 46.3175C73.288 45.9025 73.1377 45.6988 72.717 45.7026C71.5037 45.7102 70.2924 45.7102 69.083 45.7026C68.7023 45.7026 68.5271 45.8587 68.5367 46.2604C68.5462 47.1284 68.5329 47.9831 68.531 48.8378Z" fill="white"/>
<path d="M180.198 21.4376C180.066 26.6763 178.424 31.2449 174.656 34.9322C171.752 37.778 168.205 39.3599 164.204 39.9634C159.74 40.6372 155.407 40.2146 151.307 38.2501C145.686 35.5641 142.383 31.0317 141.343 24.963C140.392 19.4654 141.382 14.2762 144.798 9.73424C147.62 5.98606 151.461 3.85975 156.03 2.91556C158.053 2.4975 160.125 2.36232 162.186 2.5139C170.413 3.10211 177.578 7.88585 179.587 16.8023C179.924 18.3195 179.998 19.8918 180.198 21.4376ZM172.903 21.4071C172.84 20.6457 172.818 19.8842 172.713 19.1399C172.191 15.6106 170.577 12.7115 167.554 10.7374C164.318 8.62254 160.758 8.2285 157.056 9.19933C153.353 10.1702 150.791 12.464 149.308 15.959C148.225 18.5155 148.019 21.1863 148.486 23.9103C149.12 27.63 150.96 30.5406 154.28 32.427C156.601 33.7462 159.114 34.1193 161.758 33.9251C164.324 33.7348 166.629 32.9105 168.59 31.2506C171.614 28.6826 172.873 25.3171 172.903 21.4071Z" fill="white"/>
<path d="M64.3451 21.3709C64.3451 15.6392 64.3566 9.90934 64.328 4.17761C64.328 3.47328 64.5374 3.30766 65.2113 3.31337C69.2545 3.35145 73.2978 3.29814 77.3391 3.36287C83.6552 3.46566 87.7403 7.9315 88.2676 13.4215C88.512 15.6672 88.1648 17.9378 87.2606 20.0079C85.8025 23.3068 83.0727 25.0886 79.6462 25.6235C77.2725 25.9947 74.8282 25.9129 72.4126 26.0042C71.3884 26.0423 71.3884 26.0042 71.3884 27.0112C71.3884 30.8641 71.3732 34.7151 71.4037 38.568C71.4037 39.2133 71.2342 39.4513 70.5775 39.4398C68.7704 39.4094 66.9632 39.4094 65.1561 39.4398C64.4898 39.4513 64.3337 39.2 64.3356 38.5623C64.3547 32.8343 64.3432 27.0988 64.3451 21.3709ZM71.3884 14.6474C71.3884 16.2388 71.3999 17.8302 71.3884 19.4216C71.3884 19.8613 71.4893 20.0841 71.9805 20.0631C73.471 20.0003 74.9691 20.0289 76.4558 19.9051C79.1875 19.6786 81.0244 17.6665 81.1253 14.6607C81.2053 12.325 79.8785 10.1054 77.1487 9.58953C75.4222 9.26402 73.6176 9.35349 71.8472 9.2545C71.3732 9.22975 71.3922 9.55336 71.3942 9.87317C71.3865 11.4646 71.3834 13.056 71.3846 14.6474H71.3884Z" fill="white"/>
<path d="M89.8969 21.3308C89.8969 15.62 89.8969 9.9092 89.8817 4.19841C89.8817 3.52835 90.0397 3.30182 90.7421 3.30372C96.9491 3.3291 103.157 3.3291 109.365 3.30372C109.936 3.30372 110.098 3.47505 110.085 4.03661C110.048 5.53537 110.048 7.03414 110.085 8.5329C110.1 9.10398 109.894 9.25627 109.342 9.25246C105.466 9.23343 101.589 9.25246 97.7131 9.22771C97.0411 9.22771 96.7975 9.39713 96.8108 10.0996C96.8489 12.262 96.8451 14.4283 96.8108 16.5908C96.8013 17.2628 97.0012 17.4988 97.6998 17.4912C101.385 17.4608 105.072 17.4912 108.758 17.4646C109.352 17.4646 109.534 17.6321 109.519 18.226C109.479 19.7235 109.479 21.2216 109.519 22.7204C109.534 23.3181 109.295 23.44 108.769 23.4381C105.13 23.4228 101.49 23.4381 97.8521 23.4381C96.8279 23.4381 96.826 23.4381 96.8241 24.4717C96.8241 27.1824 96.8432 29.8932 96.8108 32.6058C96.8108 33.2758 96.9802 33.5005 97.6846 33.4948C101.562 33.4605 105.438 33.4948 109.316 33.4662C109.887 33.4662 110.104 33.6071 110.086 34.2162C110.045 35.7144 110.054 37.2144 110.086 38.7106C110.086 39.2151 109.974 39.4359 109.42 39.4359C103.142 39.4207 96.8603 39.4207 90.5746 39.4359C89.9655 39.4359 89.8836 39.1789 89.8836 38.663C89.9014 32.8875 89.9058 27.1101 89.8969 21.3308Z" fill="white"/>
<path d="M140.413 12.5323C139.579 11.8812 138.798 11.1503 137.908 10.5944C131.386 6.52834 122.66 9.28474 120.103 17.0933C118.609 21.6619 119.123 26.0269 122.338 29.7922C124.533 32.3639 127.43 33.6298 130.798 33.9249C133.939 34.2009 136.699 33.3348 139.151 31.4007C139.571 31.0676 139.939 30.6621 140.409 30.2167C140.442 30.3968 140.466 30.5785 140.479 30.7611C140.479 33.0207 140.479 35.2822 140.493 37.5417C140.514 37.7273 140.472 37.9146 140.372 38.0728C140.273 38.231 140.123 38.3505 139.946 38.4117C137.537 39.5395 134.921 40.1596 132.262 40.2334C129.001 40.3305 125.789 39.9993 122.846 38.5202C117.343 35.7752 113.648 31.4769 112.521 25.3606C111.432 19.4595 112.477 13.9238 116.275 9.1039C118.894 5.77832 122.357 3.77193 126.486 2.95338C129.962 2.26047 133.461 2.19194 136.899 3.23321C137.954 3.58025 138.987 3.99417 139.99 4.47245C140.116 4.54016 140.224 4.63577 140.307 4.75194C140.39 4.86811 140.445 5.00172 140.468 5.14252C140.502 7.5696 140.489 9.99479 140.483 12.4219C140.474 12.458 140.434 12.4961 140.413 12.5323Z" fill="white"/>
<path d="M172.835 48.4418C172.013 48.5636 171.337 48.615 170.905 47.9888C170.787 47.8193 170.905 47.2406 171.036 47.1911C171.521 47.016 172.178 46.7724 172.54 46.9703C172.816 47.1207 172.744 47.905 172.835 48.4418Z" fill="white"/>
<path d="M113.483 49.5326H111.276L112.399 47.5624L113.483 49.5326Z" fill="white"/>
<path d="M83.2172 47.6082L84.3403 49.6069H82.0922C82.4634 48.9445 82.8117 48.3277 83.2172 47.6082Z" fill="white"/>
<path d="M97.1706 46.8314C97.7778 46.9095 98.2975 46.9209 98.7753 47.0675C98.8952 47.1259 98.9985 47.2135 99.0756 47.3223C99.1528 47.4311 99.2014 47.5575 99.2169 47.6899C99.2007 47.8332 99.1506 47.9706 99.0709 48.0908C98.9911 48.2109 98.8839 48.3104 98.7582 48.3809C98.3268 48.4936 97.8796 48.5329 97.4352 48.4971C97.3457 48.4971 97.1991 48.2363 97.1839 48.084C97.1534 47.7337 97.1706 47.3758 97.1706 46.8314Z" fill="white"/>
</svg>
