<svg width="18" height="16" viewBox="0 0 18 16" fill="none" xmlns="http://www.w3.org/2000/svg">
<path d="M1.87403 7.87403L7.58579 13.5858C8.25245 14.2525 8.58579 14.5858 9 14.5858C9.41421 14.5858 9.74755 14.2525 10.4142 13.5858L16.126 7.87403C16.5512 7.44877 16.7639 7.23614 16.8291 6.95966C16.8944 6.68318 16.7993 6.39791 16.6091 5.82736L15.9117 3.73509C15.4717 2.41505 15.2517 1.75503 14.7279 1.37752C14.2041 1 13.5084 1 12.117 1H5.88304C4.49159 1 3.79587 1 3.2721 1.37752C2.74832 1.75503 2.52832 2.41505 2.0883 3.73509L1.39088 5.82736C1.2007 6.39791 1.10561 6.68318 1.17087 6.95966C1.23614 7.23614 1.44877 7.44877 1.87403 7.87403Z" stroke="#AD872D" stroke-linecap="round"/>
</svg>
