<svg width="50" height="50" viewBox="0 0 50 50" fill="none" xmlns="http://www.w3.org/2000/svg">
<path d="M17.7084 19.7917H14.7347C14.2944 19.7917 14.0743 19.7917 13.8671 19.8415C13.6835 19.8856 13.5079 19.9583 13.3468 20.057C13.1652 20.1683 13.0095 20.324 12.6982 20.6353L8.13528 25.1982C7.82397 25.5095 7.66831 25.6652 7.557 25.8468C7.4583 26.0079 7.38558 26.1835 7.34148 26.3671C7.29175 26.5743 7.29175 26.7944 7.29175 27.2347V39.8284C7.29175 40.8365 7.29175 41.3406 7.48794 41.7256C7.66051 42.0643 7.93587 42.3397 8.27457 42.5122C8.65961 42.7084 9.16366 42.7084 10.1718 42.7084H39.8284C40.8365 42.7084 41.3406 42.7084 41.7256 42.5122C42.0643 42.3397 42.3397 42.0643 42.5122 41.7256C42.7084 41.3406 42.7084 40.8365 42.7084 39.8284V27.2347C42.7084 26.7944 42.7084 26.5743 42.6587 26.3671C42.6146 26.1835 42.5419 26.0079 42.4432 25.8468C42.3319 25.6652 42.1762 25.5095 41.8649 25.1982L37.3019 20.6353C36.9906 20.324 36.835 20.1683 36.6533 20.057C36.4923 19.9583 36.3167 19.8856 36.133 19.8415C35.9259 19.7917 35.7057 19.7917 35.2655 19.7917H32.2917" stroke="#AD872D"/>
<path d="M42.7084 30.2083H35.8166C35.1209 30.2083 34.773 30.2083 34.5111 30.397C34.2492 30.5858 34.1392 30.9158 33.9192 31.5758L32.7476 35.0907C32.5276 35.7507 32.4176 36.0807 32.1557 36.2695C31.8938 36.4583 31.546 36.4583 30.8502 36.4583H19.1499C18.4542 36.4583 18.1064 36.4583 17.8445 36.2695C17.5826 36.0807 17.4726 35.7507 17.2526 35.0907L16.0809 31.5758C15.8609 30.9158 15.7509 30.5858 15.489 30.397C15.2271 30.2083 14.8793 30.2083 14.1836 30.2083H7.29175" stroke="#AD872D"/>
<path d="M24.9999 8.33325C27.5374 8.33325 30.7617 10.3937 31.8844 11.1684C32.1434 11.3472 32.2916 11.6435 32.2916 11.9583V19.5536C32.2916 20.9891 31.5224 22.3144 30.2761 23.0266L25.4961 25.7581C25.1886 25.9338 24.8112 25.9338 24.5038 25.7581L19.7237 23.0266C18.4774 22.3144 17.7083 20.9891 17.7083 19.5536V11.9583C17.7083 11.6435 17.8564 11.3472 18.1154 11.1684C19.2381 10.3937 22.4624 8.33325 24.9999 8.33325Z" stroke="#AD872D"/>
</svg>
