<svg width="50" height="50" viewBox="0 0 50 50" fill="none" xmlns="http://www.w3.org/2000/svg">
<path d="M32.2917 21.875L26.0417 28.125L21.8751 23.9583L15.6251 30.2083" stroke="#AD872D" stroke-linecap="round" stroke-linejoin="round"/>
<path d="M30.2083 9.375H12.575C11.4549 9.375 10.8948 9.375 10.467 9.59299C10.0907 9.78473 9.78473 10.0907 9.59299 10.467C9.375 10.8948 9.375 11.4549 9.375 12.575V37.425C9.375 38.5451 9.375 39.1052 9.59299 39.533C9.78473 39.9093 10.0907 40.2153 10.467 40.407C10.8948 40.625 11.4549 40.625 12.575 40.625H37.425C38.5451 40.625 39.1052 40.625 39.533 40.407C39.9093 40.2153 40.2153 39.9093 40.407 39.533C40.625 39.1052 40.625 38.5451 40.625 37.425V19.7917" stroke="#AD872D" stroke-linecap="round"/>
<path d="M43.2499 11.4583C43.2499 14.0587 41.1419 16.1667 38.5416 16.1667C35.9412 16.1667 33.8333 14.0587 33.8333 11.4583C33.8333 8.85799 35.9412 6.75 38.5416 6.75C41.1419 6.75 43.2499 8.85799 43.2499 11.4583Z" stroke="#AD872D" stroke-linecap="round"/>
</svg>
