<svg width="95" height="95" viewBox="0 0 95 95" fill="none" xmlns="http://www.w3.org/2000/svg">
<path d="M31.6671 51.4586L50.6864 66.674C51.1143 67.0164 51.738 66.9505 52.0851 66.5264L87.0837 23.7502" stroke="url(#paint0_linear_77_3378)" stroke-linecap="round"/>
<path fill-rule="evenodd" clip-rule="evenodd" d="M36.9503 51.9475L59.762 24.0666C59.9368 23.8529 59.9053 23.5379 59.6916 23.363C59.4779 23.1882 59.1629 23.2197 58.988 23.4334L36.1821 51.3073L36.9503 51.9475ZM33.784 55.8174L33.0158 55.1772L23.9701 66.2331C23.8004 66.4405 23.4974 66.4773 23.2831 66.3165L8.21666 55.0167C7.99574 54.851 7.68234 54.8958 7.51665 55.1167C7.35097 55.3376 7.39574 55.651 7.61666 55.8167L22.6831 67.1165C23.3261 67.5988 24.235 67.4885 24.744 66.8663L33.784 55.8174Z" fill="url(#paint1_linear_77_3378)"/>
<defs>
<linearGradient id="paint0_linear_77_3378" x1="79.6069" y1="38.5797" x2="42.6455" y2="51.8943" gradientUnits="userSpaceOnUse">
<stop stop-color="#FFEAB4"/>
<stop offset="1" stop-color="#AD872D"/>
</linearGradient>
<linearGradient id="paint1_linear_77_3378" x1="25.2829" y1="29.209" x2="32.7875" y2="60.7011" gradientUnits="userSpaceOnUse">
<stop stop-color="#FFEAB4"/>
<stop offset="1" stop-color="#AD872D"/>
</linearGradient>
</defs>
</svg>
