<svg width="163" height="54" viewBox="0 0 163 54" fill="none" xmlns="http://www.w3.org/2000/svg">
<path d="M67.186 6.33862C67.186 5.77874 67.4445 5.30499 67.8321 5.00352L74.9383 0.26604C75.9288 -0.423047 77.307 0.309108 77.307 1.51501V1.55808V18.5699C77.307 18.5699 77.307 26.839 85.7053 27.8295C86.9973 27.8726 88.9784 26.7959 88.9354 22.3599V9.95634V6.85544C88.9354 5.95101 89.366 5.13272 90.0982 4.61591L90.4428 4.3575L95.3094 0.91206L96.1277 0.352176C97.3767 -0.509183 99.0133 0.395244 99.0133 1.85956L98.7979 18.5699C98.7979 21.4555 97.4628 24.1688 95.1802 25.9346L89.2368 30.2414C89.2368 30.2414 84.4132 33.9883 80.2787 34.8066C73.9477 36.0986 67.143 30.7582 67.143 23.5658L67.186 6.33862Z" fill="url(#paint0_linear_29_512)"/>
<path d="M22.0077 3.79753L22.3953 6.38161H12.7051V31.8779H9.38882V6.42468H0V3.8406H22.0077V3.79753ZM44.6184 6.59695H40.1824V17.7516H44.2739C45.609 17.7516 46.8149 17.5793 47.8916 17.2347C49.0114 16.8902 49.8727 16.2872 50.5618 15.512C51.2509 14.6937 51.5954 13.574 51.5954 12.1527C51.5954 10.6884 51.294 9.56864 50.691 8.75035C50.0881 7.93206 49.2698 7.41524 48.1931 7.11377C47.2025 6.76922 45.9966 6.59695 44.6184 6.59695ZM36.9523 3.79753H44.6184C46.5565 3.79753 48.3223 4.05594 49.9158 4.61582C51.4662 5.13264 52.7152 5.994 53.6196 7.1999C54.5241 8.40581 54.9978 9.95625 54.9978 11.9374C54.9547 13.8324 54.481 15.3828 53.5335 16.5887C52.6291 17.7946 51.4662 18.656 50.0019 19.2589L57.1512 31.8348H53.5766L47.1164 20.1203C46.7288 20.1634 46.255 20.2064 45.6521 20.2495C45.0922 20.2926 44.5754 20.2926 44.1016 20.2926H40.1394V31.8348H36.9093V3.79753H36.9523ZM110.125 30.5858L110.857 28.0017C111.374 28.2171 112.02 28.4755 112.709 28.7339C113.441 28.9923 114.259 29.2507 115.164 29.423C116.025 29.5953 116.93 29.6814 117.748 29.6814C119.255 29.6814 120.461 29.5091 121.452 29.1215C122.442 28.7339 123.174 28.2171 123.691 27.528C124.208 26.7958 124.466 26.0206 124.466 25.1593C124.466 24.1256 124.165 23.2643 123.605 22.5752C123.045 21.843 122.227 21.197 121.107 20.594C119.987 19.948 118.652 19.302 117.016 18.656C115.81 18.0961 114.733 17.5362 113.786 17.0194C112.881 16.4595 112.106 15.8135 111.46 15.1675C110.857 14.4784 110.383 13.7462 110.039 12.9279C109.737 12.1097 109.565 11.2483 109.565 10.3008C109.565 8.96569 109.909 7.75979 110.642 6.68309C111.374 5.64946 112.407 4.7881 113.743 4.14208C115.078 3.49606 116.671 3.19458 118.523 3.19458C119.901 3.19458 121.236 3.36685 122.485 3.7114C123.734 4.05594 124.811 4.48662 125.715 4.9173L124.596 7.45831C124.122 7.24297 123.605 7.02763 123.045 6.81229C122.485 6.59695 121.839 6.42468 121.15 6.29547C120.461 6.1232 119.643 6.03707 118.695 6.03707C116.93 6.03707 115.465 6.42468 114.345 7.15683C113.226 7.88899 112.709 8.92262 112.709 10.2577C112.709 11.2483 112.967 12.1097 113.527 12.8418C114.087 13.574 114.948 14.22 116.111 14.866C117.231 15.469 118.609 16.158 120.246 16.9763C121.452 17.4931 122.528 18.053 123.433 18.5698C124.337 19.1297 125.112 19.7327 125.758 20.3356C126.405 20.9817 126.878 21.6707 127.223 22.489C127.567 23.2643 127.74 24.1687 127.74 25.1593C127.74 26.5805 127.352 27.8725 126.534 28.9492C125.758 30.069 124.639 30.9304 123.131 31.5333C121.667 32.1793 119.858 32.4808 117.748 32.4808C117.188 32.4808 116.499 32.4377 115.767 32.3085C115.035 32.1793 114.302 32.0501 113.57 31.8779C112.838 31.7056 112.149 31.5333 111.546 31.318C111.029 31.0596 110.512 30.8012 110.125 30.5858ZM161.893 3.79753L162.28 6.38161H152.59V31.8779H149.274V6.42468H139.842V3.8406H161.893V3.79753Z" fill="url(#paint1_linear_29_512)"/>
<path d="M6.15231 48.339V49.6018C6.24945 50.0552 6.47611 50.4437 6.8323 50.7999C7.35039 51.318 7.93324 51.5447 8.64561 51.5447C9.35799 51.5447 9.97322 51.2856 10.4589 50.7999C10.977 50.2818 11.2037 49.699 11.2037 48.9866C11.2037 48.2742 10.9446 47.659 10.4589 47.1733C9.94083 46.6552 9.35799 46.3962 8.64561 46.3962C7.93324 46.3962 7.31801 46.6552 6.8323 47.1409C6.47611 47.4971 6.24945 47.8857 6.15231 48.339ZM5.63422 49.6342V48.339C5.53708 47.8857 5.31041 47.4971 4.95423 47.1409C4.46852 46.6228 3.85329 46.3962 3.14092 46.3962C2.42854 46.3962 1.81331 46.6552 1.3276 47.1733C0.809514 47.6914 0.58285 48.2742 0.58285 48.9866C0.58285 49.699 0.841895 50.3142 1.3276 50.7999C1.84569 51.2856 2.42854 51.5447 3.14092 51.5447C3.85329 51.5447 4.46852 51.2856 4.95423 50.7999C5.31041 50.4437 5.53708 50.0552 5.63422 49.6342ZM6.15231 47.1085C6.24945 46.979 6.34659 46.8819 6.44373 46.7523C7.05896 46.1371 7.80372 45.8457 8.64561 45.8457C9.51989 45.8457 10.2323 46.1371 10.8475 46.7523C11.4627 47.3676 11.7541 48.1123 11.7541 48.9542C11.7541 49.7961 11.4627 50.5409 10.8475 51.1561C10.2323 51.7713 9.51989 52.0628 8.64561 52.0628C7.77134 52.0628 7.05896 51.7713 6.44373 51.1561C6.34659 51.059 6.24945 50.9294 6.15231 50.7999V53.9408H5.63422V50.7999C5.53708 50.9294 5.43994 51.0266 5.34279 51.1561C4.72756 51.7713 3.98281 52.0628 3.14092 52.0628C2.26664 52.0628 1.52189 51.7713 0.939037 51.1561C0.291425 50.5733 0 49.8285 0 48.9866C0 48.1123 0.291425 47.3676 0.906656 46.7847C1.52189 46.2019 2.26664 45.8781 3.10854 45.8781C3.95043 45.8781 4.69518 46.1695 5.31041 46.7847C5.40756 46.9143 5.5047 47.0114 5.60184 47.1409V44H6.15231V47.1085ZM14.5713 46.3638H15.0893V51.0913L18.6512 46.3638H19.2017V51.9656H18.6836V47.2057L15.057 51.9656H14.5713V46.3638ZM26.7787 51.9332H26.2606V49.1809H22.5369V51.9332H22.0188V46.3314H22.5369V48.6304H26.2606V46.3314H26.7787V51.9332ZM35.9424 51.9332H35.4243V50.7999C35.3272 50.9294 35.2301 51.059 35.1005 51.1885C34.4853 51.8037 33.7406 52.0951 32.8987 52.0951C32.0244 52.0951 31.312 51.8037 30.6968 51.1885C30.0816 50.5733 29.7901 49.8285 29.7901 48.9866C29.7901 48.1123 30.0816 47.3676 30.6968 46.7847C31.312 46.1695 32.0568 45.8781 32.8987 45.8781C33.7729 45.8781 34.5177 46.1695 35.1005 46.7847C35.2301 46.9143 35.3272 47.0438 35.4243 47.1733V46.3962H35.9424V51.9332ZM35.4243 49.4723V48.4685C35.3272 47.9828 35.1005 47.5295 34.712 47.1409C34.1939 46.6228 33.611 46.3962 32.8987 46.3962C32.1863 46.3962 31.5711 46.6552 31.0854 47.1409C30.5673 47.659 30.3406 48.2419 30.3406 48.9542C30.3406 49.6666 30.5996 50.2818 31.0854 50.7675C31.6034 51.2532 32.1863 51.5123 32.8987 51.5123C33.611 51.5123 34.2263 51.2532 34.712 50.7675C35.1005 50.4114 35.3272 49.9904 35.4243 49.4723ZM43.8109 51.9332H43.2928V49.1809H39.5691V51.9332H39.051V46.3314H39.5691V48.6304H43.2928V46.3314H43.8109V51.9332ZM51.7118 50.6056L52.2622 50.7999C52.1651 50.9294 52.068 51.059 51.9384 51.1885C51.3232 51.8037 50.5785 52.0951 49.7366 52.0951C48.8623 52.0951 48.1499 51.8037 47.5347 51.1885C46.9194 50.5733 46.628 49.8285 46.628 48.9866C46.628 48.1123 46.9194 47.4 47.5347 46.7847C48.1499 46.1695 48.8947 45.8781 49.7366 45.8781C50.6108 45.8781 51.3556 46.1695 51.9384 46.7847C52.068 46.9143 52.1651 47.0438 52.2622 47.1733L51.7118 47.3676C51.647 47.3028 51.5823 47.2381 51.5175 47.1733C50.9994 46.6876 50.4165 46.4285 49.7042 46.4285C48.9918 46.4285 48.3766 46.6876 47.8909 47.1733C47.3728 47.659 47.1461 48.2742 47.1461 48.9866C47.1461 49.699 47.4052 50.3142 47.8909 50.7999C48.409 51.318 48.9918 51.5447 49.7042 51.5447C50.4165 51.5447 51.0318 51.2856 51.5175 50.7999C51.6146 50.7352 51.6794 50.6704 51.7118 50.6056ZM58.1555 45.8457C59.0298 45.8457 59.7422 46.1371 60.3574 46.7523C60.9726 47.3676 61.264 48.1123 61.264 48.9542C61.264 49.8285 60.9726 50.5409 60.3574 51.1561C59.7422 51.7713 59.0298 52.0628 58.1555 52.0628C57.2812 52.0628 56.5689 51.7713 55.9536 51.1561C55.3384 50.5409 55.047 49.7961 55.047 48.9542C55.047 48.08 55.3384 47.3352 55.9536 46.7523C56.5689 46.1371 57.3136 45.8457 58.1555 45.8457ZM58.1555 46.3962C57.4431 46.3962 56.8279 46.6552 56.3422 47.1409C55.8241 47.659 55.5974 48.2419 55.5974 48.9542C55.5974 49.6666 55.8565 50.2818 56.3422 50.7675C56.8603 51.2532 57.4431 51.5123 58.1555 51.5123C58.8679 51.5123 59.4831 51.2532 59.9688 50.7675C60.4869 50.2495 60.7136 49.6666 60.7136 48.9542C60.7136 48.2419 60.4545 47.6266 59.9688 47.1409C59.4831 46.6552 58.8679 46.3962 58.1555 46.3962ZM64.6964 48.8571H66.283C66.6392 48.8571 66.9306 48.7276 67.1249 48.5333C67.3192 48.339 67.4164 48.1123 67.4164 47.8533C67.4164 47.5942 67.3192 47.4 67.1249 47.1733C66.9306 46.979 66.6392 46.8495 66.283 46.8495H64.6964V48.8571ZM64.6964 49.4399V51.4475H66.283C66.6392 51.4152 66.9306 51.318 67.1249 51.1237C67.3192 50.9294 67.4164 50.7028 67.4164 50.4437C67.4164 50.1847 67.3192 49.958 67.1249 49.7637C66.9306 49.5695 66.6392 49.4399 66.283 49.4399H64.6964ZM64.2107 46.3314H66.3154C66.8011 46.3638 67.2221 46.5257 67.5135 46.8171C67.8049 47.1085 67.9668 47.4647 67.9668 47.8209C67.9668 48.2095 67.8049 48.5333 67.5135 48.8247C67.4164 48.9218 67.2868 49.019 67.1573 49.0838C67.2868 49.1485 67.384 49.2457 67.5135 49.3428C67.8049 49.6342 67.9668 49.9904 67.9668 50.379C67.9668 50.7675 67.8049 51.0913 67.5135 51.4152C67.2221 51.7066 66.8011 51.8685 66.3154 51.9009H64.2107V46.3314ZM73.7953 45.8457C74.6696 45.8457 75.382 46.1371 75.9972 46.7523C76.6124 47.3676 76.9039 48.1123 76.9039 48.9542C76.9039 49.8285 76.6124 50.5409 75.9972 51.1561C75.382 51.7713 74.6696 52.0628 73.7953 52.0628C72.921 52.0628 72.2087 51.7713 71.5934 51.1561C70.9782 50.5409 70.6868 49.7961 70.6868 48.9542C70.6868 48.08 70.9782 47.3352 71.5934 46.7523C72.2087 46.1371 72.921 45.8457 73.7953 45.8457ZM73.7953 46.3962C73.0829 46.3962 72.4677 46.6552 71.982 47.1409C71.4639 47.659 71.2373 48.2419 71.2373 48.9542C71.2373 49.6666 71.4963 50.2818 71.982 50.7675C72.5001 51.2532 73.0829 51.5123 73.7953 51.5123C74.5077 51.5123 75.1229 51.2532 75.6086 50.7675C76.1267 50.2495 76.3534 49.6666 76.3534 48.9542C76.3534 48.2419 76.0943 47.6266 75.6086 47.1409C75.1229 46.6552 74.5077 46.3962 73.7953 46.3962ZM81.1133 50.8971C81.599 51.3504 82.1819 51.5447 82.8295 51.5447C83.5419 51.5447 84.1571 51.2856 84.6428 50.7999C84.7076 50.7352 84.7723 50.6704 84.8371 50.6056L85.3876 50.7999C85.2904 50.9294 85.1609 51.059 85.0638 51.1885C84.4485 51.8037 83.7038 52.0951 82.8619 52.0951C81.9876 52.0951 81.2752 51.8037 80.66 51.1885C80.0448 50.5733 79.7533 49.8285 79.7533 48.9866C79.7533 48.1123 80.0448 47.4 80.66 46.7847C81.2752 46.1695 82.02 45.8781 82.8619 45.8781C83.6066 45.8781 84.2542 46.1047 84.8047 46.5581C84.9019 46.6228 84.999 46.72 85.0638 46.8171C85.0961 46.8495 85.1285 46.8819 85.1609 46.9143L84.7723 47.3028L81.1133 50.8971ZM84.3838 46.9143C83.9304 46.5581 83.4124 46.3962 82.8295 46.3962C82.1171 46.3962 81.5019 46.6552 81.0162 47.1409C80.4981 47.6266 80.2714 48.2419 80.2714 48.9542C80.2714 49.5371 80.4333 50.0552 80.7895 50.5085L84.3838 46.9143ZM100.315 51.9332H99.7969V50.7999C99.6998 50.9294 99.6026 51.059 99.4731 51.1885C98.8579 51.8037 98.1131 52.0951 97.2712 52.0951C96.397 52.0951 95.6846 51.8037 95.0694 51.1885C94.4541 50.5733 94.1627 49.8285 94.1627 48.9866C94.1627 48.1123 94.4541 47.3676 95.0694 46.7847C95.6846 46.1695 96.4293 45.8781 97.2712 45.8781C98.1455 45.8781 98.8903 46.1695 99.4731 46.7847C99.6026 46.9143 99.6998 47.0438 99.7969 47.1733V46.3962H100.315V51.9332ZM99.7969 49.4723V48.4685C99.6998 47.9828 99.4731 47.5295 99.0845 47.1409C98.5665 46.6228 97.9836 46.3962 97.2712 46.3962C96.5589 46.3962 95.9436 46.6552 95.4579 47.1409C94.9398 47.659 94.7132 48.2419 94.7132 48.9542C94.7132 49.6666 94.9722 50.2818 95.4579 50.7675C95.976 51.2532 96.5589 51.5123 97.2712 51.5123C97.9836 51.5123 98.5988 51.2532 99.0845 50.7675C99.4731 50.4114 99.6998 49.9904 99.7969 49.4723ZM104.071 46.8819V51.9656H103.553V46.3638H106.37V46.8819H104.071ZM110.483 50.8971C110.968 51.3504 111.551 51.5447 112.199 51.5447C112.911 51.5447 113.526 51.2856 114.012 50.7999C114.077 50.7352 114.142 50.6704 114.206 50.6056L114.757 50.7999C114.66 50.9294 114.53 51.059 114.433 51.1885C113.818 51.8037 113.073 52.0951 112.231 52.0951C111.357 52.0951 110.644 51.8037 110.029 51.1885C109.414 50.5733 109.123 49.8285 109.123 48.9866C109.123 48.1123 109.414 47.4 110.029 46.7847C110.644 46.1695 111.389 45.8781 112.231 45.8781C112.976 45.8781 113.623 46.1047 114.174 46.5581C114.271 46.6228 114.368 46.72 114.433 46.8171C114.465 46.8495 114.498 46.8819 114.53 46.9143L114.142 47.3028L110.483 50.8971ZM113.753 46.9143C113.3 46.5581 112.782 46.3962 112.199 46.3962C111.486 46.3962 110.871 46.6552 110.385 47.1409C109.867 47.6266 109.641 48.2419 109.641 48.9542C109.641 49.5371 109.803 50.0552 110.159 50.5085L113.753 46.9143ZM122.301 51.9332H121.783V49.1809H118.06V51.9332H117.541V46.3314H118.06V48.6304H121.783V46.3314H122.301V51.9332ZM137.909 50.6056L138.459 50.7999C138.362 50.9294 138.233 51.059 138.136 51.1885C137.52 51.8037 136.776 52.0951 135.934 52.0951C135.059 52.0951 134.347 51.8037 133.732 51.1885C133.117 50.5733 132.825 49.8285 132.825 48.9866C132.825 48.1123 133.117 47.4 133.732 46.7847C134.347 46.1695 135.092 45.8781 135.934 45.8781C136.808 45.8781 137.553 46.1695 138.136 46.7847C138.265 46.9143 138.362 47.0438 138.459 47.1733L137.909 47.3676C137.844 47.3028 137.779 47.2381 137.715 47.1733C137.196 46.6876 136.614 46.4285 135.901 46.4285C135.189 46.4285 134.574 46.6876 134.088 47.1733C133.57 47.659 133.343 48.2742 133.343 48.9866C133.343 49.699 133.602 50.3142 134.088 50.7999C134.606 51.318 135.189 51.5447 135.901 51.5447C136.614 51.5447 137.229 51.2856 137.715 50.7999C137.812 50.7352 137.876 50.6704 137.909 50.6056ZM144.061 46.8819V51.9656H143.543V46.8819H141.244V46.3638H146.36V46.8819H144.061ZM127.968 46.8819V51.9656H127.45V46.8819H125.151V46.3638H130.267V46.8819H127.968ZM149.793 48.8571H151.379C151.735 48.8571 152.027 48.7276 152.221 48.5333C152.415 48.339 152.512 48.1123 152.512 47.8533C152.512 47.5942 152.415 47.4 152.221 47.1733C152.027 46.979 151.735 46.8495 151.379 46.8495H149.793V48.8571ZM149.793 49.4399V51.4475H151.379C151.735 51.4152 152.027 51.318 152.221 51.1237C152.415 50.9294 152.512 50.7028 152.512 50.4437C152.512 50.1847 152.415 49.958 152.221 49.7637C152.027 49.5695 151.735 49.4399 151.379 49.4399H149.793ZM149.274 46.3314H151.379C151.865 46.3638 152.286 46.5257 152.577 46.8171C152.869 47.1085 153.031 47.4647 153.031 47.8209C153.031 48.2095 152.869 48.5333 152.577 48.8247C152.48 48.9218 152.351 49.019 152.221 49.0838C152.351 49.1485 152.448 49.2457 152.577 49.3428C152.869 49.6342 153.031 49.9904 153.031 50.379C153.031 50.7675 152.869 51.0913 152.577 51.4152C152.286 51.7066 151.865 51.8685 151.379 51.9009H149.274V46.3314ZM158.891 45.8457C159.766 45.8457 160.478 46.1371 161.093 46.7523C161.709 47.3676 162 48.1123 162 48.9542C162 49.8285 161.709 50.5409 161.093 51.1561C160.478 51.7713 159.766 52.0628 158.891 52.0628C158.017 52.0628 157.305 51.7713 156.69 51.1561C156.074 50.5409 155.783 49.7961 155.783 48.9542C155.783 48.08 156.074 47.3352 156.69 46.7523C157.305 46.1695 158.017 45.8457 158.891 45.8457ZM158.891 46.3962C158.179 46.3962 157.564 46.6552 157.078 47.1409C156.56 47.659 156.333 48.2419 156.333 48.9542C156.333 49.6666 156.592 50.2818 157.078 50.7675C157.596 51.2532 158.179 51.5123 158.891 51.5123C159.604 51.5123 160.219 51.2532 160.705 50.7675C161.223 50.2495 161.45 49.6666 161.45 48.9542C161.45 48.2419 161.19 47.6266 160.705 47.1409C160.219 46.6552 159.604 46.3962 158.891 46.3962Z" fill="url(#paint2_linear_29_512)"/>
<defs>
<linearGradient id="paint0_linear_29_512" x1="67.1717" y1="17.4947" x2="99.0611" y2="17.4947" gradientUnits="userSpaceOnUse">
<stop stop-color="#ECC978"/>
<stop offset="0.34" stop-color="#FFEAB5"/>
<stop offset="0.665" stop-color="#E7C279"/>
<stop offset="1" stop-color="#D8B66D"/>
</linearGradient>
<linearGradient id="paint1_linear_29_512" x1="81.1237" y1="-13.2891" x2="81.1237" y2="33.655" gradientUnits="userSpaceOnUse">
<stop stop-color="#ECC978"/>
<stop offset="0.34" stop-color="#FFEAB5"/>
<stop offset="0.665" stop-color="#E7C279"/>
<stop offset="1" stop-color="#D8B66D"/>
</linearGradient>
<linearGradient id="paint2_linear_29_512" x1="81.0039" y1="40.6086" x2="81.0039" y2="49.0275" gradientUnits="userSpaceOnUse">
<stop stop-color="#ECC978"/>
<stop offset="0.34" stop-color="#FFEAB5"/>
<stop offset="0.665" stop-color="#E7C279"/>
<stop offset="1" stop-color="#D8B66D"/>
</linearGradient>
</defs>
</svg>
