<svg width="50" height="50" viewBox="0 0 50 50" fill="none" xmlns="http://www.w3.org/2000/svg">
<path d="M7.29175 11.2918C7.29175 9.89162 7.29175 9.19155 7.56423 8.65677C7.80392 8.18637 8.18637 7.80392 8.65677 7.56423C9.19155 7.29175 9.89162 7.29175 11.2917 7.29175H38.7084C40.1085 7.29175 40.8086 7.29175 41.3434 7.56423C41.8138 7.80392 42.1962 8.18637 42.4359 8.65677C42.7084 9.19155 42.7084 9.89162 42.7084 11.2917V38.7084C42.7084 40.1085 42.7084 40.8086 42.4359 41.3434C42.1962 41.8138 41.8138 42.1962 41.3434 42.4359C40.8086 42.7084 40.1085 42.7084 38.7084 42.7084H11.2918C9.89162 42.7084 9.19155 42.7084 8.65677 42.4359C8.18637 42.1962 7.80392 41.8138 7.56423 41.3434C7.29175 40.8086 7.29175 40.1085 7.29175 38.7084V11.2918Z" stroke="#AD872D"/>
<circle cx="17.7083" cy="23.9583" r="4.70833" stroke="#AD872D"/>
<path d="M21.875 23.9583H32.2917M36.4583 28.1249V24.1083C36.4583 24.0254 36.3912 23.9583 36.3083 23.9583H32.2917M32.2917 23.9583V28.1249" stroke="#AD872D" stroke-linecap="round"/>
</svg>
