<svg xmlns="http://www.w3.org/2000/svg" width="163" height="35" fill="none"><path fill="url(#a)" d="M67.186 6.339c0-.56.258-1.034.646-1.335L74.938.266c.99-.689 2.369.043 2.369 1.249V18.57s0 8.269 8.398 9.26c1.292.043 3.273-1.034 3.23-5.47V6.856c0-.905.431-1.723 1.163-2.24l.345-.258L95.309.911l.819-.56c1.249-.861 2.885.043 2.885 1.508l-.215 16.71a9.304 9.304 0 0 1-3.618 7.365l-5.943 4.306s-4.824 3.747-8.958 4.566c-6.331 1.292-13.136-4.049-13.136-11.241l.043-17.227Z"/><path fill="url(#b)" d="m22.008 3.798.387 2.584h-9.69v25.496H9.39V6.425H0V3.84h22.008v-.043Zm22.61 2.799h-4.436v11.155h4.092c1.335 0 2.54-.173 3.618-.517a5.76 5.76 0 0 0 2.67-1.723c.689-.818 1.033-1.938 1.033-3.36 0-1.464-.301-2.583-.904-3.402-.603-.818-1.421-1.335-2.498-1.636-.99-.345-2.196-.517-3.575-.517Zm-7.666-2.8h7.666c1.938 0 3.704.259 5.298.819 1.55.517 2.8 1.378 3.704 2.584.904 1.206 1.378 2.756 1.378 4.737-.043 1.895-.517 3.446-1.465 4.652-.904 1.206-2.067 2.067-3.531 2.67l7.15 12.576h-3.575l-6.46-11.715c-.388.043-.862.086-1.465.13-.56.043-1.077.043-1.55.043h-3.963v11.542h-3.23V3.798h.043Zm73.173 26.789.732-2.584c.517.215 1.163.474 1.852.732.732.258 1.55.517 2.455.689.861.172 1.766.258 2.584.258 1.507 0 2.713-.172 3.704-.56.99-.387 1.722-.904 2.239-1.593.517-.732.775-1.507.775-2.369 0-1.033-.301-1.895-.861-2.584-.56-.732-1.378-1.378-2.498-1.981-1.12-.646-2.455-1.292-4.091-1.938a55.457 55.457 0 0 1-3.23-1.637 12.91 12.91 0 0 1-2.326-1.851 8.198 8.198 0 0 1-1.421-2.24 7.476 7.476 0 0 1-.474-2.627c0-1.335.344-2.541 1.077-3.618.732-1.034 1.765-1.895 3.101-2.54 1.335-.647 2.928-.948 4.78-.948 1.378 0 2.713.172 3.962.516 1.249.345 2.326.776 3.23 1.206l-1.119 2.541c-.474-.215-.991-.43-1.551-.646a10.994 10.994 0 0 0-1.895-.517c-.689-.172-1.507-.258-2.455-.258-1.765 0-3.23.388-4.35 1.12-1.119.732-1.636 1.766-1.636 3.1 0 .991.258 1.853.818 2.585.56.732 1.421 1.378 2.584 2.024 1.12.603 2.498 1.292 4.135 2.11a31.364 31.364 0 0 1 3.187 1.594c.904.56 1.679 1.163 2.325 1.766a6.59 6.59 0 0 1 1.465 2.153c.344.775.517 1.68.517 2.67 0 1.422-.388 2.713-1.206 3.79-.776 1.12-1.895 1.981-3.403 2.584-1.464.646-3.273.948-5.383.948-.56 0-1.249-.043-1.981-.172-.732-.13-1.465-.259-2.197-.431s-1.421-.345-2.024-.56a39.793 39.793 0 0 1-1.421-.732Zm51.768-26.788.387 2.584h-9.69v25.496h-3.316V6.425h-9.432V3.84h22.051v-.043Z"/><defs><linearGradient id="a" x1="67.172" x2="99.061" y1="17.495" y2="17.495" gradientUnits="userSpaceOnUse"><stop stop-color="#ECC978"/><stop offset=".34" stop-color="#FFEAB5"/><stop offset=".665" stop-color="#E7C279"/><stop offset="1" stop-color="#D8B66D"/></linearGradient><linearGradient id="b" x1="81.124" x2="81.124" y1="-13.289" y2="33.655" gradientUnits="userSpaceOnUse"><stop stop-color="#ECC978"/><stop offset=".34" stop-color="#FFEAB5"/><stop offset=".665" stop-color="#E7C279"/><stop offset="1" stop-color="#D8B66D"/></linearGradient></defs></svg>