<svg width="46" height="108" viewBox="0 0 46 108" fill="none" xmlns="http://www.w3.org/2000/svg">
<path d="M23 13.4166L23 40.25" stroke="#AD872D" stroke-linecap="round" stroke-linejoin="round"/>
<path d="M22.7856 4.19066L17.977 12.2051C17.657 12.7383 18.0411 13.4167 18.663 13.4167L27.337 13.4167C27.9589 13.4167 28.343 12.7383 28.023 12.2051L23.2144 4.19066C23.1173 4.02883 22.8827 4.02883 22.7856 4.19066Z" fill="#AD872D"/>
<path d="M23 94.5833L23 67.75" stroke="#606060" stroke-linecap="round" stroke-linejoin="round"/>
<path d="M23.2144 103.809L28.023 95.7949C28.343 95.2617 27.9589 94.5834 27.337 94.5834L18.663 94.5834C18.0411 94.5834 17.657 95.2617 17.977 95.7949L22.7856 103.809C22.8827 103.971 23.1173 103.971 23.2144 103.809Z" fill="#606060"/>
</svg>
