<svg width="50" height="50" viewBox="0 0 50 50" fill="none" xmlns="http://www.w3.org/2000/svg">
<path d="M29.6875 8.33325H20.3125C13.6834 8.33325 10.3688 8.33325 8.30941 10.4253C6.25 12.5174 6.25 15.8846 6.25 22.619V27.3809C6.25 34.1152 6.25 37.4824 8.30941 39.5745C10.3688 41.6666 13.6834 41.6666 20.3125 41.6666H29.6875C36.3166 41.6666 39.6312 41.6666 41.6906 39.5745C43.75 37.4824 43.75 34.1152 43.75 27.3809V22.619C43.75 15.8846 43.75 12.5174 41.6906 10.4253C39.6312 8.33325 36.3166 8.33325 29.6875 8.33325Z" stroke="#AD872D"/>
<path d="M14.5833 16.6667H20.8333" stroke="#AD872D" stroke-linecap="round"/>
<path d="M31.25 31.3333V26.9999C31.25 26.0571 31.25 25.5857 31.5429 25.2928C31.8358 24.9999 32.3072 24.9999 33.25 24.9999H41.75C42.6928 24.9999 43.1642 24.9999 43.4571 25.2928C43.75 25.5857 43.75 26.0571 43.75 26.9999V31.3333C43.75 32.2761 43.75 32.7475 43.4571 33.0404C43.1642 33.3333 42.6928 33.3333 41.75 33.3333H33.25C32.3072 33.3333 31.8358 33.3333 31.5429 33.0404C31.25 32.7475 31.25 32.2761 31.25 31.3333Z" stroke="#AD872D"/>
</svg>
